<svg width="327" height="40" viewBox="0 0 327 40" fill="none" xmlns="http://www.w3.org/2000/svg">
<rect width="40" height="40" rx="20" fill="#FFD5D3"/>
<path d="M30.0674 13.7133C30.0107 13.5762 29.9146 13.4591 29.7913 13.3766C29.668 13.2942 29.523 13.2502 29.3746 13.2501H26.5218C26.123 12.5716 25.5553 12.0077 24.874 11.6135C24.1928 11.2192 23.4211 11.0079 22.634 11.0001C22.0476 10.9924 21.4656 11.1021 20.9222 11.3227C20.3788 11.5433 19.8851 11.8703 19.4699 12.2845C19.0427 12.7038 18.7036 13.2042 18.4726 13.7565C18.2415 14.3087 18.1232 14.9015 18.1246 15.5001V16.0711C14.3503 15.0754 11.2631 12.0051 11.2303 11.9723C11.1296 11.8708 11.0021 11.8002 10.8627 11.7687C10.7233 11.7372 10.5777 11.7463 10.4433 11.7947C10.3088 11.8432 10.191 11.9291 10.1037 12.0423C10.0164 12.1554 9.96329 12.2912 9.95057 12.4336C9.54651 16.9139 10.8478 19.912 12.0131 21.6379C12.5813 22.4912 13.2725 23.2557 14.0643 23.9067C12.6365 25.5501 10.3884 26.4136 10.364 26.4229C10.2582 26.4626 10.1627 26.5256 10.0846 26.6074C10.0066 26.6891 9.94802 26.7874 9.91332 26.895C9.87861 27.0025 9.86865 27.1165 9.8842 27.2284C9.89974 27.3404 9.94037 27.4474 10.0031 27.5414C10.0734 27.6464 10.3546 28.0148 11.0418 28.3589C11.8912 28.7845 13.0134 29.0001 14.3746 29.0001C20.9999 29.0001 26.5359 23.8983 27.1012 17.3339L29.9053 14.5308C30.0101 14.4258 30.0815 14.2921 30.1104 14.1466C30.1392 14.0011 30.1243 13.8503 30.0674 13.7133ZM25.8487 16.4704C25.7201 16.5993 25.6428 16.7706 25.6312 16.9523C25.2496 22.867 20.3071 27.5001 14.3746 27.5001C13.3846 27.5001 12.6871 27.3689 12.1978 27.2114C13.2768 26.6254 14.7815 25.6176 15.749 24.1664C15.8058 24.081 15.8445 23.985 15.8627 23.8841C15.8809 23.7832 15.8782 23.6797 15.8549 23.5799C15.8315 23.4801 15.7879 23.3861 15.7268 23.3038C15.6657 23.2215 15.5884 23.1526 15.4996 23.1014C15.4556 23.0761 11.3831 20.632 11.3746 14.1014C12.8746 15.3201 15.6168 17.2111 18.7499 17.7379C18.8573 17.7561 18.9674 17.7506 19.0724 17.7218C19.1774 17.6931 19.275 17.6419 19.3582 17.5717C19.4414 17.5015 19.5084 17.414 19.5544 17.3153C19.6004 17.2166 19.6244 17.109 19.6246 17.0001V15.5001C19.6238 15.1001 19.703 14.7038 19.8575 14.3348C20.0121 13.9658 20.2389 13.6314 20.5246 13.3514C20.7985 13.077 21.1247 12.8603 21.4837 12.7141C21.8428 12.5678 22.2276 12.4951 22.6153 12.5001C23.8021 12.5151 24.9112 13.2389 25.3753 14.3011C25.4338 14.4346 25.5299 14.5482 25.652 14.628C25.774 14.7077 25.9167 14.7502 26.0624 14.7501H27.5624L25.8487 16.4704Z" fill="#CD3C32"/>
<rect x="71.75" width="40" height="40" rx="20" fill="#FFD5D3"/>
<path d="M97.3387 21.5787L94.3387 20.0787C94.2206 20.0199 94.0891 19.9933 93.9574 20.0015C93.8258 20.0097 93.6986 20.0525 93.5887 20.1256L92.2115 21.0444C91.5793 20.6968 91.0591 20.1766 90.7115 19.5444L91.6303 18.1672C91.7034 18.0573 91.7462 17.9302 91.7544 17.7985C91.7627 17.6668 91.736 17.5353 91.6772 17.4172L90.1772 14.4172C90.115 14.2916 90.0189 14.186 89.8998 14.1123C89.7806 14.0385 89.6432 13.9996 89.5031 14C88.5085 14 87.5547 14.3951 86.8515 15.0984C86.1482 15.8016 85.7531 16.7554 85.7531 17.75C85.7556 19.9373 86.6256 22.0343 88.1722 23.5809C89.7189 25.1275 91.8158 25.9975 94.0031 26C94.4956 26 94.9832 25.903 95.4382 25.7145C95.8931 25.5261 96.3065 25.2499 96.6548 24.9017C97.003 24.5534 97.2792 24.14 97.4677 23.6851C97.6561 23.2301 97.7531 22.7425 97.7531 22.25C97.7532 22.1107 97.7145 21.9741 97.6413 21.8555C97.5681 21.7369 97.4633 21.6411 97.3387 21.5787ZM94.0031 24.5C92.2135 24.498 90.4978 23.7862 89.2323 22.5208C87.9669 21.2553 87.2551 19.5396 87.2531 17.75C87.253 17.2298 87.4331 16.7256 87.7628 16.3233C88.0925 15.9209 88.5515 15.6452 89.0615 15.5431L90.1378 17.6994L89.2219 19.0625C89.1534 19.1652 89.1114 19.2831 89.0994 19.406C89.0875 19.5288 89.106 19.6526 89.1534 19.7666C89.69 21.0419 90.7046 22.0565 91.98 22.5931C92.0943 22.6426 92.2191 22.6629 92.3431 22.6521C92.4672 22.6413 92.5866 22.5998 92.6906 22.5312L94.0603 21.6181L96.2165 22.6944C96.1137 23.205 95.8368 23.6642 95.4331 23.9935C95.0294 24.3228 94.524 24.5018 94.0031 24.5ZM91.7531 10.25C90.0698 10.2496 88.4151 10.6851 86.95 11.514C85.4849 12.3428 84.2593 13.5369 83.3926 14.98C82.5259 16.423 82.0476 18.0659 82.0042 19.7486C81.9608 21.4314 82.3538 23.0967 83.145 24.5825L82.0809 27.7747C81.9928 28.039 81.98 28.3226 82.044 28.5938C82.108 28.8649 82.2462 29.1129 82.4432 29.3099C82.6402 29.5069 82.8882 29.6451 83.1593 29.7091C83.4305 29.7731 83.7141 29.7603 83.9784 29.6722L87.1706 28.6081C88.4782 29.3036 89.9271 29.6921 91.4072 29.744C92.8873 29.7959 94.3599 29.51 95.713 28.9079C97.0661 28.3057 98.2643 27.4033 99.2165 26.269C100.169 25.1346 100.85 23.7983 101.209 22.3613C101.568 20.9244 101.594 19.4246 101.287 17.9758C100.979 16.527 100.346 15.1673 99.4343 13.9999C98.5228 12.8325 97.3574 11.8881 96.0265 11.2384C94.6956 10.5886 93.2342 10.2506 91.7531 10.25ZM91.7531 28.25C90.3028 28.251 88.8779 27.8691 87.6225 27.1428C87.5306 27.0895 87.4284 27.0563 87.3227 27.0455C87.217 27.0347 87.1102 27.0464 87.0094 27.08L83.5031 28.25L84.6722 24.7438C84.7059 24.643 84.7178 24.5362 84.7071 24.4305C84.6964 24.3248 84.6634 24.2226 84.6103 24.1306C83.7009 22.5584 83.3358 20.7299 83.5716 18.929C83.8074 17.128 84.6309 15.4552 85.9144 14.1701C87.198 12.8849 88.8697 12.0593 90.6704 11.8212C92.471 11.5831 94.2999 11.9459 95.8734 12.8533C97.4468 13.7607 98.6768 15.162 99.3725 16.8398C100.068 18.5176 100.191 20.3781 99.7213 22.1327C99.2518 23.8873 98.2163 25.4379 96.7756 26.5439C95.3349 27.65 93.5694 28.2497 91.7531 28.25Z" fill="#CD3C32"/>
<rect x="143.5" width="40" height="40" rx="20" fill="#FFD5D3"/>
<path d="M163.5 15.5C162.61 15.5 161.74 15.7639 161 16.2584C160.26 16.7529 159.683 17.4557 159.343 18.2779C159.002 19.1002 158.913 20.005 159.086 20.8779C159.26 21.7508 159.689 22.5526 160.318 23.182C160.947 23.8113 161.749 24.2399 162.622 24.4135C163.495 24.5872 164.4 24.4981 165.222 24.1575C166.044 23.8169 166.747 23.2401 167.242 22.5001C167.736 21.76 168 20.89 168 20C167.999 18.8069 167.524 17.663 166.681 16.8194C165.837 15.9757 164.693 15.5012 163.5 15.5ZM163.5 23C162.907 23 162.327 22.8241 161.833 22.4944C161.34 22.1648 160.955 21.6962 160.728 21.1481C160.501 20.5999 160.442 19.9967 160.558 19.4147C160.673 18.8328 160.959 18.2982 161.379 17.8787C161.798 17.4591 162.333 17.1734 162.915 17.0576C163.497 16.9419 164.1 17.0013 164.648 17.2284C165.196 17.4554 165.665 17.8399 165.994 18.3333C166.324 18.8266 166.5 19.4067 166.5 20C166.5 20.7956 166.184 21.5587 165.621 22.1213C165.059 22.6839 164.296 23 163.5 23ZM168 10.25H159C157.608 10.2515 156.274 10.8051 155.289 11.7893C154.305 12.7736 153.751 14.1081 153.75 15.5V24.5C153.751 25.8919 154.305 27.2264 155.289 28.2107C156.274 29.1949 157.608 29.7485 159 29.75H168C169.392 29.7485 170.726 29.1949 171.711 28.2107C172.695 27.2264 173.249 25.8919 173.25 24.5V15.5C173.249 14.1081 172.695 12.7736 171.711 11.7893C170.726 10.8051 169.392 10.2515 168 10.25ZM171.75 24.5C171.75 25.4946 171.355 26.4484 170.652 27.1516C169.948 27.8549 168.995 28.25 168 28.25H159C158.005 28.25 157.052 27.8549 156.348 27.1516C155.645 26.4484 155.25 25.4946 155.25 24.5V15.5C155.25 14.5054 155.645 13.5516 156.348 12.8483C157.052 12.1451 158.005 11.75 159 11.75H168C168.995 11.75 169.948 12.1451 170.652 12.8483C171.355 13.5516 171.75 14.5054 171.75 15.5V24.5ZM169.5 15.125C169.5 15.3475 169.434 15.565 169.31 15.75C169.187 15.935 169.011 16.0792 168.806 16.1644C168.6 16.2495 168.374 16.2718 168.156 16.2284C167.937 16.185 167.737 16.0778 167.58 15.9205C167.422 15.7632 167.315 15.5627 167.272 15.3445C167.228 15.1262 167.25 14.9 167.336 14.6945C167.421 14.4889 167.565 14.3132 167.75 14.1896C167.935 14.066 168.152 14 168.375 14C168.673 14 168.96 14.1185 169.17 14.3295C169.381 14.5405 169.5 14.8266 169.5 15.125Z" fill="#CD3C32"/>
<rect x="215.25" width="40" height="40" rx="20" fill="#FFD5D3"/>
<path d="M235.25 10.25C233.322 10.25 231.437 10.8218 229.833 11.8932C228.23 12.9645 226.98 14.4873 226.242 16.2688C225.504 18.0504 225.311 20.0108 225.687 21.9021C226.064 23.7934 226.992 25.5307 228.356 26.8943C229.719 28.2579 231.457 29.1865 233.348 29.5627C235.239 29.9389 237.2 29.7458 238.981 29.0078C240.763 28.2699 242.285 27.0202 243.357 25.4168C244.428 23.8134 245 21.9284 245 20C244.997 17.415 243.969 14.9366 242.141 13.1087C240.313 11.2808 237.835 10.2527 235.25 10.25ZM236 28.2153V22.25H238.25C238.449 22.25 238.64 22.171 238.78 22.0303C238.921 21.8897 239 21.6989 239 21.5C239 21.3011 238.921 21.1103 238.78 20.9697C238.64 20.829 238.449 20.75 238.25 20.75H236V18.5C236 18.1022 236.158 17.7206 236.439 17.4393C236.721 17.158 237.102 17 237.5 17H239C239.199 17 239.39 16.921 239.53 16.7803C239.671 16.6397 239.75 16.4489 239.75 16.25C239.75 16.0511 239.671 15.8603 239.53 15.7197C239.39 15.579 239.199 15.5 239 15.5H237.5C236.704 15.5 235.941 15.8161 235.379 16.3787C234.816 16.9413 234.5 17.7044 234.5 18.5V20.75H232.25C232.051 20.75 231.86 20.829 231.72 20.9697C231.579 21.1103 231.5 21.3011 231.5 21.5C231.5 21.6989 231.579 21.8897 231.72 22.0303C231.86 22.171 232.051 22.25 232.25 22.25H234.5V28.2153C232.386 28.0223 230.427 27.0217 229.032 25.4215C227.637 23.8214 226.912 21.7449 227.009 19.6241C227.105 17.5032 228.016 15.5013 229.551 14.0346C231.086 12.5679 233.127 11.7495 235.25 11.7495C237.373 11.7495 239.414 12.5679 240.949 14.0346C242.484 15.5013 243.395 17.5032 243.491 19.6241C243.588 21.7449 242.863 23.8214 241.468 25.4215C240.073 27.0217 238.114 28.0223 236 28.2153Z" fill="#CD3C32"/>
<rect x="287" width="40" height="40" rx="20" fill="#FFD5D3"/>
<path d="M316 19.9995C316 22.1187 315.252 24.1699 313.889 25.7919C312.525 27.414 310.632 28.5027 308.545 28.8665C306.457 29.2302 304.308 28.8456 302.476 27.7803C300.644 26.7151 299.247 25.0376 298.53 23.0433C297.814 21.049 297.824 18.8657 298.559 16.8782C299.294 14.8906 300.707 13.2261 302.549 12.178C304.39 11.1298 306.543 10.7652 308.627 11.1483C310.711 11.5314 312.594 12.6377 313.942 14.2724C314.009 14.3477 314.06 14.4358 314.092 14.5313C314.125 14.6268 314.137 14.7278 314.129 14.8283C314.122 14.9288 314.094 15.0267 314.047 15.1161C314.001 15.2056 313.937 15.2848 313.859 15.3489C313.781 15.4131 313.692 15.461 313.595 15.4896C313.498 15.5183 313.397 15.5272 313.297 15.5158C313.197 15.5044 313.1 15.4729 313.012 15.4232C312.924 15.3736 312.848 15.3067 312.786 15.2267C311.683 13.8892 310.151 12.9752 308.45 12.6401C306.749 12.305 304.984 12.5696 303.456 13.3888C301.928 14.208 300.731 15.5313 300.069 17.1335C299.407 18.7357 299.32 20.5179 299.823 22.1769C300.327 23.8359 301.39 25.2692 302.831 26.233C304.272 27.1968 306.002 27.6315 307.728 27.4633C309.454 27.295 311.067 26.5342 312.295 25.3102C313.523 24.0861 314.289 22.4745 314.463 20.7495H307C306.801 20.7495 306.61 20.6705 306.47 20.5299C306.329 20.3892 306.25 20.1985 306.25 19.9995C306.25 19.8006 306.329 19.6099 306.47 19.4692C306.61 19.3286 306.801 19.2495 307 19.2495H315.25C315.449 19.2495 315.64 19.3286 315.78 19.4692C315.921 19.6099 316 19.8006 316 19.9995Z" fill="#CD3C32"/>
</svg>
