<svg width="327" height="210" viewBox="0 0 327 210" fill="none" xmlns="http://www.w3.org/2000/svg">
<rect x="115.476" y="50.2554" width="70.9641" height="99.8462" fill="#F9E3C5"/>
<path d="M123.785 50.2837V149.749" stroke="#161616" stroke-width="5"/>
<path d="M137.424 50.2837V149.749" stroke="#161616" stroke-width="5"/>
<path d="M150.946 50.1665V149.632" stroke="#161616" stroke-width="5"/>
<path d="M164.585 50.1665V149.632" stroke="#161616" stroke-width="5"/>
<path d="M178.224 50.1665V149.632" stroke="#161616" stroke-width="5"/>
<rect x="55.1985" y="133.897" width="102.199" height="63.1408" fill="#F9E3C5"/>
<rect x="113.888" y="133.899" width="43.5086" height="63.1373" fill="#C4A16A"/>
<path d="M62.1986 133.897L55.1985 144.03V133.897H62.1986Z" fill="#7FAD9C"/>
<path d="M81.7401 133.897L55.1985 172.316V161.003L73.9201 133.897H81.7401Z" fill="#7FAD9C"/>
<path d="M101.282 133.897L57.6685 197.038H55.1985V189.289L93.4622 133.897H101.282Z" fill="#7FAD9C"/>
<path d="M113.887 133.899V143.95L77.2121 197.036H69.3894L113.015 133.899H113.887Z" fill="#7FAD9C"/>
<path d="M113.888 160.918V172.229L96.7502 197.036H88.9425L113.888 160.918Z" fill="#7FAD9C"/>
<path d="M113.888 189.209V197.036H108.48L113.888 189.209Z" fill="#7FAD9C"/>
<path d="M157.398 154.516V165.836L135.845 197.038H128.025L157.398 154.516Z" fill="#161616"/>
<path d="M157.398 182.81V194.123L155.379 197.038H147.567L157.398 182.81Z" fill="#161616"/>
<path d="M120.831 133.899L113.887 143.95V133.899H120.831Z" fill="#2B5E57"/>
<path d="M140.367 133.899L113.887 172.229V160.918L132.552 133.899H140.367Z" fill="#2B5E57"/>
<path d="M157.396 133.899V137.533L116.301 197.036H113.887V189.209L152.098 133.899H157.396Z" fill="#2B5E57"/>
<path d="M157.398 154.516V165.836L135.845 197.038H128.025L157.398 154.516Z" fill="#2B5E57"/>
<path d="M157.398 182.81V194.123L155.379 197.038H147.567L157.398 182.81Z" fill="#2B5E57"/>
<rect x="161.303" y="97.9922" width="66.0498" height="51.9876" fill="#C4A16A"/>
<ellipse cx="203.517" cy="104.85" rx="1.84509" ry="1.84123" fill="#161616"/>
<ellipse cx="169.866" cy="108.974" rx="1.84509" ry="1.84123" fill="#161616"/>
<ellipse cx="218.72" cy="131.069" rx="1.84509" ry="1.84123" fill="#161616"/>
<ellipse cx="198.845" cy="120.372" rx="1.84509" ry="1.84123" fill="#161616"/>
<ellipse cx="179.442" cy="121.845" rx="1.84509" ry="1.84123" fill="#161616"/>
<ellipse cx="186.175" cy="107.206" rx="1.84509" ry="1.84123" fill="#161616"/>
<ellipse cx="204.772" cy="142.558" rx="1.84509" ry="1.84123" fill="#161616"/>
<ellipse cx="222.968" cy="145.588" rx="1.84509" ry="1.84123" fill="#161616"/>
<ellipse cx="167.725" cy="131.806" rx="1.84509" ry="1.84123" fill="#161616"/>
<ellipse cx="177.319" cy="142.558" rx="1.84509" ry="1.84123" fill="#161616"/>
<ellipse cx="189.791" cy="136.298" rx="1.84509" ry="1.84123" fill="#161616"/>
<ellipse cx="218.424" cy="114.204" rx="1.84509" ry="1.84123" fill="#161616"/>
<rect x="77.3503" y="83.7134" width="64.6607" height="50.1602" fill="#C64D3B"/>
<path d="M109.526 133.849L109.422 83.6831" stroke="#C4A16A" stroke-width="7"/>
<path d="M77.3671 108.663L142.001 108.666" stroke="#C4A16A" stroke-width="7"/>
<rect x="136.396" y="149.933" width="98.6691" height="47.1251" fill="#C64D3B"/>
<path d="M200.188 150.002V196.639" stroke="white"/>
<ellipse cx="139.211" cy="155.388" rx="1.04299" ry="1.04081" fill="white"/>
<ellipse cx="149.319" cy="163.68" rx="1.04299" ry="1.04081" fill="white"/>
<ellipse cx="161.621" cy="156.393" rx="1.04299" ry="1.04081" fill="white"/>
<ellipse cx="146.01" cy="177.788" rx="1.04299" ry="1.04081" fill="white"/>
<ellipse cx="178.994" cy="177.752" rx="1.04299" ry="1.04081" fill="white"/>
<ellipse cx="178.527" cy="190.819" rx="1.04299" ry="1.04081" fill="white"/>
<ellipse cx="193.85" cy="184.322" rx="1.04299" ry="1.04081" fill="white"/>
<ellipse cx="217.015" cy="191.825" rx="1.04299" ry="1.04081" fill="white"/>
<ellipse cx="228.129" cy="184.286" rx="1.04299" ry="1.04081" fill="white"/>
<ellipse cx="208.957" cy="181.522" rx="1.04299" ry="1.04081" fill="white"/>
<ellipse cx="142.017" cy="190.317" rx="1.04299" ry="1.04081" fill="white"/>
<ellipse cx="161.369" cy="185.794" rx="1.04299" ry="1.04081" fill="white"/>
<ellipse cx="166.656" cy="169.927" rx="1.04299" ry="1.04081" fill="white"/>
<ellipse cx="190.829" cy="167.988" rx="1.04299" ry="1.04081" fill="white"/>
<ellipse cx="228.094" cy="160.414" rx="1.04299" ry="1.04081" fill="white"/>
<ellipse cx="207.447" cy="167.45" rx="1.04299" ry="1.04081" fill="white"/>
<ellipse cx="177.735" cy="159.911" rx="1.04299" ry="1.04081" fill="white"/>
<ellipse cx="193.095" cy="154.634" rx="1.04299" ry="1.04081" fill="white"/>
<ellipse cx="220.288" cy="174.737" rx="1.04299" ry="1.04081" fill="white"/>
<ellipse cx="215.001" cy="157.147" rx="1.04299" ry="1.04081" fill="white"/>
<path d="M136.445 172.975L234.977 172.972" stroke="white"/>
<path d="M195.541 97.855V149.704" stroke="#161616"/>
<path d="M161.37 123.995H227.368" stroke="#161616"/>
<rect x="111.83" y="49.8042" width="78.2586" height="11.1866" fill="#161616"/>
<rect x="159.488" y="94.7285" width="68.9786" height="9.07565" fill="#161616"/>
<path d="M228.429 90.8228L256.863 95.0389L308.793 190.441L291.313 200.929L291.252 200.94L259.687 201.162L259.624 201.041L206.78 102.069L228.282 90.8963L228.429 90.8228Z" fill="#7FAD9C"/>
<path d="M308.791 190.445L291.313 200.932L291.251 200.939L259.691 201.164L259.622 201.041L206.778 102.071L228.28 90.8962L228.389 90.8418L280.899 189.097L308.716 190.309L308.791 190.445Z" fill="#2B5E57"/>
<path d="M232.745 151.584L254.797 140.133L282.515 140.894" stroke="#161616"/>
<path d="M275.405 201.357L295.814 189.778L243.924 92.7603" stroke="#161616"/>
<path d="M308.791 190.445L291.313 200.932L291.251 200.939L275.942 201.048L259.786 201.164L280.893 189.083L254.747 140.163L233.115 151.393L206.778 102.071L228.28 90.8962L228.389 90.8417L228.43 90.8213L244.135 93.1489L256.861 95.0409L281.806 140.871L308.716 190.308L308.791 190.445Z" fill="#7FAD9C"/>
<path d="M228.389 90.8418L254.746 140.163L233.115 151.393L206.778 102.071L228.28 90.8962L228.389 90.8418Z" fill="#2B5E57"/>
<path d="M308.792 190.444L291.313 200.932L291.252 200.939L275.942 201.048L259.787 201.164L280.893 189.083L280.9 189.097L295.801 189.743L308.717 190.308L308.792 190.444Z" fill="#161616"/>
<path d="M283.247 141.248L254.794 140.136L254.747 140.163L233.115 151.393L232.747 151.584" stroke="#161616"/>
<path d="M275.405 201.357L295.814 189.778L243.924 92.7603" stroke="#161616"/>
<path d="M183.028 66.1479C180.666 66.5875 178.428 67.5365 176.471 68.9287C174.932 69.9054 173.765 71.3694 173.158 73.0863C172.661 74.822 173.243 76.9524 174.838 77.805C176.261 78.384 177.892 78.0882 179.021 77.0464L183.028 66.1479Z" fill="#C4A16A"/>
<path d="M209.475 64.9966C210.987 66.0004 213.022 67.128 214.523 68.1474C220.444 72.1669 220.178 74.4274 220.028 75.2433C219.674 77.1604 217.622 78.6969 214.716 77.9615L209.475 64.9966Z" fill="#C4A16A"/>
<path d="M214.743 77.5673C215.65 88.2508 207.371 94.5569 196.863 94.5569C186.354 94.5569 178.636 88.6724 178.636 77.9294C178.636 67.1865 186.281 59.8066 195.873 59.0975C205.671 58.3732 213.805 66.5242 214.743 77.5673Z" fill="#C4A16A"/>
<path d="M209.842 65.2349C212.705 68.7465 214.416 73.0521 214.743 77.5672" stroke="#161616" stroke-linecap="round"/>
<path d="M178.636 77.9295C178.556 73.4865 180.039 69.156 182.827 65.6909" stroke="#161616" stroke-linecap="round"/>
<ellipse cx="184.857" cy="42.0396" rx="4.00257" ry="3.99419" fill="#C4A16A"/>
<ellipse cx="207.403" cy="41.2408" rx="4.00257" ry="3.99419" fill="#C4A16A"/>
<ellipse cx="196.409" cy="51.4794" rx="14.4656" ry="12.7626" fill="#C4A16A"/>
<ellipse cx="187.975" cy="48.5645" rx="0.82943" ry="0.827694" fill="#161616"/>
<ellipse cx="203.804" cy="48.5645" rx="0.82943" ry="0.827694" fill="#161616"/>
<path d="M191.244 50.8956C192.423 49.7917 193.999 49.2125 195.613 49.2907C197.012 49.2436 198.387 49.6572 199.527 50.4677C201.63 52.0738 202.471 54.8404 201.617 57.3422C201.188 58.5459 200.401 59.7699 198.186 60.5253C196.069 61.2476 192.317 61.2114 190.521 58.6529C189.928 57.8085 188.466 53.7646 191.244 50.8956Z" fill="#F9E3C5"/>
<path d="M196.009 51.329C195.268 51.1941 194.502 51.3204 193.844 51.6865C193.452 51.9053 193.25 52.3553 193.349 52.7926C193.536 53.3001 194.203 53.3927 194.744 53.4016L195.77 53.4182C196.118 53.4554 196.47 53.3959 196.787 53.2462C197.132 53.0323 197.307 52.6261 197.225 52.229C197.029 51.3793 196.009 51.329 196.009 51.329Z" fill="#161616"/>
<path d="M195.235 53.5547C195.281 54.5333 195.268 55.5138 195.197 56.4909C195.18 56.6951 195.13 56.8953 195.048 57.0831C194.61 57.677 193.914 58.0274 193.175 58.027" stroke="#161616" stroke-linecap="round"/>
<path d="M195.224 56.0283C195.225 56.5348 195.44 57.0174 195.816 57.3574C196.192 57.6975 196.695 57.8634 197.2 57.8142" stroke="#161616" stroke-linecap="round"/>
<ellipse cx="197.208" cy="79.2977" rx="9.9793" ry="9.77813" fill="#F9E3C5"/>
<ellipse cx="184.416" cy="87.4455" rx="6.97853" ry="7.19652" fill="#C4A16A"/>
<ellipse cx="210.358" cy="87.4455" rx="6.97853" ry="7.19652" fill="#C4A16A"/>
<path d="M179.378 82.4646C180.673 81.056 182.5 80.2526 184.415 80.249C188.333 80.3141 191.457 83.5355 191.394 87.4455C191.403 89.5395 190.509 91.536 188.939 92.9254" stroke="#161616" stroke-linecap="round"/>
<path d="M205.582 92.6931C204.166 91.3139 203.371 89.4203 203.379 87.4455C203.316 83.5355 206.44 80.3141 210.358 80.249C211.754 80.2486 213.117 80.6777 214.26 81.4781" stroke="#161616" stroke-linecap="round"/>
<path fill-rule="evenodd" clip-rule="evenodd" d="M17.0542 200.288C17.053 200.28 17.0514 200.271 17.0493 200.263L20.1557 143.316C20.1565 143.29 20.1598 143.264 20.1654 143.239C20.1735 143.2 20.1901 143.163 20.214 143.132C20.2298 143.098 20.253 143.068 20.2819 143.045C20.3357 142.99 20.4054 142.955 20.481 142.943C20.5075 142.933 20.5354 142.929 20.5635 142.928H20.5927L32.3391 142.26L31.9799 140.967C31.9761 140.951 31.9744 140.934 31.975 140.918C31.9737 140.91 31.9755 140.901 31.9799 140.894C31.9755 140.874 31.979 140.853 31.9896 140.836C31.9971 140.813 32.0085 140.792 32.0235 140.773C32.0319 140.762 32.0417 140.752 32.0526 140.744C32.0639 140.734 32.0772 140.728 32.0915 140.724L32.1351 140.71C32.1526 140.706 32.1706 140.704 32.1886 140.705C32.1934 140.7 32.1983 140.7 32.208 140.7L81.4994 146.872H81.5235C81.6298 146.87 81.7325 146.91 81.8099 146.983C81.8847 147.058 81.9281 147.158 81.9313 147.264L84.3922 201.775C84.3945 201.862 84.3708 201.948 84.3242 202.022C84.301 202.053 84.275 202.082 84.2466 202.109C84.2149 202.134 84.1807 202.155 84.1447 202.172L67.2823 209.37H67.2677C67.2468 209.382 67.2236 209.389 67.1998 209.39C67.1717 209.4 67.1421 209.405 67.1123 209.404C67.1024 209.405 67.0925 209.403 67.0832 209.399C67.0759 209.4 67.0686 209.4 67.0614 209.399C67.0556 209.398 67.05 209.396 67.0444 209.395L17.3939 200.69L17.3357 200.67C17.3231 200.665 17.3101 200.66 17.2969 200.656C17.2914 200.656 17.2859 200.653 17.2796 200.649C17.2747 200.647 17.2692 200.643 17.2629 200.641C17.2489 200.637 17.238 200.626 17.2337 200.612C17.2202 200.611 17.2079 200.604 17.1998 200.593L17.1804 200.574L17.1415 200.54V200.535C17.1386 200.53 17.1358 200.525 17.1332 200.521C17.1228 200.504 17.1143 200.49 17.1028 200.467C17.0941 200.458 17.0889 200.446 17.0881 200.433C17.0852 200.43 17.084 200.427 17.0825 200.423C17.0815 200.42 17.0804 200.417 17.0785 200.414C17.075 200.414 17.074 200.411 17.072 200.406C17.0712 200.404 17.0702 200.402 17.0687 200.399V200.37C17.066 200.368 17.0642 200.364 17.0639 200.36C17.0647 200.346 17.063 200.331 17.059 200.317C17.059 200.315 17.0582 200.311 17.0572 200.307C17.0558 200.301 17.0542 200.293 17.0542 200.288ZM33.8051 157.771C33.7722 158.026 33.7559 158.284 33.7565 158.541C33.7586 161.564 36.0093 164.115 39.0133 164.499L48.7746 165.749C51.2043 166.06 53.5805 164.87 54.7837 162.741C55.1675 162.066 55.4149 161.322 55.5117 160.551C55.5447 160.293 55.5609 160.032 55.5603 159.771C55.5579 156.751 53.3062 154.203 50.3035 153.823L41.6198 152.709L40.5471 152.573C37.2475 152.152 34.2297 154.478 33.8051 157.771Z" fill="#C4A16A"/>
<path d="M20.3855 143.127C20.3803 143.235 20.4592 143.33 20.5669 143.343L20.9825 143.396L48.137 146.958L69.9367 149.813L70.2418 149.853H70.2683C70.2954 149.853 70.3223 149.848 70.3479 149.839L70.7725 149.654H70.7813L74.0711 148.233L81.1063 147.337L81.5175 147.284C81.6222 147.271 81.7004 147.182 81.6989 147.077C81.6992 146.981 81.6334 146.897 81.5396 146.874C81.5352 146.874 81.5308 146.869 81.5264 146.869H81.4998L32.2052 140.705C32.1815 140.702 32.1576 140.703 32.1344 140.709L32.0946 140.722C32.0805 140.728 32.0672 140.735 32.0549 140.744C32.0435 140.753 32.0331 140.764 32.0239 140.775C32.0095 140.794 31.9976 140.815 31.9885 140.837C31.9789 140.854 31.9758 140.875 31.9798 140.894C31.9756 140.901 31.974 140.909 31.9752 140.916C31.9757 140.933 31.9787 140.949 31.9841 140.965L32.3379 142.258L20.5935 142.929H20.5714V142.933C20.567 142.929 20.567 142.929 20.5625 142.933C20.4632 142.945 20.3877 143.027 20.3855 143.127Z" fill="#161616"/>
<path d="M33.7559 158.542C33.7591 161.564 36.0097 164.114 39.0134 164.499L48.7725 165.748C51.2018 166.061 53.5787 164.872 54.7817 162.743L46.0972 161.631C43.0942 161.244 40.8443 158.695 40.8396 155.673C40.8383 155.415 40.8546 155.157 40.8883 154.901C40.9872 154.13 41.235 153.385 41.6179 152.708L40.5478 152.571C37.2481 152.151 34.231 154.477 33.8045 157.769C33.771 158.025 33.7547 158.283 33.7559 158.542Z" fill="#161616"/>
<path d="M70.3103 151.876L67.0963 207.511" stroke="#161616" stroke-linecap="round"/>
<path d="M74.0221 154.864L74.0214 198.045L69.3156 205.115" stroke="#161616" stroke-linecap="round"/>
<path d="M81.0766 200.164L74.0203 198.044" stroke="#161616" stroke-linecap="round"/>
<path d="M257.428 15.9136C257.574 17.142 256.806 18.2948 255.929 19.1693C255.052 20.0438 254.016 20.7919 253.378 21.8526C252.446 23.3471 252.647 25.2817 253.866 26.5539C255.127 27.7059 257.487 27.459 258.249 25.932C258.511 25.5283 258.462 24.9987 258.131 24.6494C257.975 24.5461 257.793 24.4875 257.606 24.4798C256.143 24.4223 254.864 25.4554 254.615 26.8952C254.443 28.3327 255.178 29.7271 256.462 30.4003C257.753 31.0311 259.272 30.9902 260.528 30.2909C260.869 30.1066 261.229 29.792 261.161 29.4111C261.041 29.0611 260.7 28.8355 260.33 28.861C259.037 28.8206 258.13 30.1878 257.925 31.4623C257.747 32.1802 257.911 32.9402 258.37 33.5208C258.778 33.8612 259.262 34.0985 259.781 34.2126C261.749 34.8514 263.66 36.016 264.611 37.8503" stroke="#C4A16A"/>
<path d="M309.096 91.5347C310.913 95.7352 311.005 100.875 307.609 103.948C307.008 104.522 306.245 104.901 305.423 105.032C303.139 105.281 302.722 102.195 304.587 100.985C305.764 100.201 307.268 100.09 308.548 100.693C309.828 101.296 310.697 102.525 310.839 103.93C311.179 107.381 307.568 109.841 306.292 113.066" stroke="#C64D3B"/>
<path d="M87.5738 15.9521C87.6596 19.1117 87.0228 22.2491 85.7115 25.1262C85.3148 26.0065 84.6888 26.7646 83.8987 27.3214C83.158 27.7773 82.1881 27.5595 81.7145 26.8309C81.5395 26.3893 81.5576 25.8948 81.7644 25.4671C82.713 23.196 86.4374 23.2169 87.7962 25.27C89.1551 27.323 88.2791 30.3033 86.3494 31.8347C84.4197 33.3662 81.7596 33.6756 79.3152 33.3548" stroke="#C64D3B"/>
<path d="M27.5829 69.6885C26.0857 70.4837 25.2103 72.0955 25.3598 73.7816C25.5093 75.4676 26.6548 76.901 28.2687 77.4214C29.8825 77.9419 31.6519 77.4486 32.7617 76.1687C33.0541 75.8931 33.2015 75.4976 33.1606 75.0984C32.9678 74.249 31.5566 74.1452 30.5155 74.8538C28.7642 76.0458 28.1802 78.5961 28.9446 80.5694C29.9076 82.6934 32.0946 83.994 34.4248 83.8284C35.0868 83.8249 35.7175 83.5463 36.1653 83.0596C36.372 82.8073 36.4644 82.4807 36.4205 82.1578C36.3765 81.8348 36.2002 81.5446 35.9336 81.3564C35.6119 81.2186 35.2516 81.199 34.9167 81.3011C31.8904 81.9924 30.816 86.401 32.822 88.7657C34.828 91.1303 38.766 91.1844 41.2575 89.3359" stroke="#C4A16A"/>
<ellipse cx="261.167" cy="66.8735" rx="2.02076" ry="2.01653" fill="#7FAD9C"/>
<ellipse cx="62.3733" cy="62.0071" rx="1.76275" ry="1.75906" fill="#2B5E57"/>
<ellipse cx="41.2217" cy="112.14" rx="1.76275" ry="1.75906" fill="#F9E3C5"/>
<ellipse cx="309.579" cy="73.8806" rx="1.76275" ry="1.75906" fill="#F9E3C5"/>
<ellipse cx="147.996" cy="1.78689" rx="1.76275" ry="1.75906" fill="#C4A16A"/>
<ellipse cx="324.737" cy="140.137" rx="1.76275" ry="1.75906" fill="#C64D3B"/>
<ellipse cx="190.38" cy="11.6564" rx="1.09916" ry="1.09686" stroke="#161616"/>
<ellipse cx="54.1443" cy="24.6789" rx="1.09916" ry="1.09686" fill="#C64D3B"/>
<ellipse cx="1.59916" cy="95.1637" rx="1.09916" ry="1.09686" fill="#C64D3B"/>
<ellipse cx="287.39" cy="104.971" rx="1.09916" ry="1.09686" fill="#2B5E57"/>
<ellipse cx="106.879" cy="32.1028" rx="1.76275" ry="1.75906" fill="#7FAD9C"/>
</svg>
