<svg width="215" height="208" viewBox="0 0 215 208" fill="none" xmlns="http://www.w3.org/2000/svg">
<path d="M158.514 93.7098C158.513 106.313 153.458 118.389 144.48 127.237C135.502 136.085 123.35 140.964 110.744 140.785C84.7703 140.421 63.8395 118.764 64.3306 92.8019C64.673 74.868 75.1797 58.6866 91.4262 51.0722C95.516 49.1536 98.1456 44.5415 98.1456 40.0253V40.5499L98.1808 39.8732L125.852 39.8584L125.845 41.1083C125.855 45.5332 128.373 49.5699 132.343 51.5257C148.377 59.4735 158.518 75.8196 158.514 93.7098Z" fill="#C4A16A"/>
<path fill-rule="evenodd" clip-rule="evenodd" d="M117.804 31.0833C123.159 31.7158 127.389 33.1587 127.516 34.617C127.518 34.6433 127.515 39.9918 127.515 39.9918C127.515 42.1358 125.777 43.8739 123.632 43.8739C121.49 43.8739 119.753 42.1408 119.748 40.0011C119.725 42.1246 117.995 43.8388 115.865 43.8388C113.731 43.8388 111.999 42.118 111.982 39.9888C111.981 41.3723 111.243 42.6507 110.044 43.3432C108.843 44.0372 107.362 44.037 106.161 43.3428C104.96 42.6486 104.222 41.3661 104.224 39.9793H104.217C104.204 42.1229 102.46 43.8529 100.316 43.8499C98.1711 43.8469 96.4323 42.112 96.4252 39.9684C96.4252 39.9684 96.4016 34.6226 96.4021 34.602C96.4286 33.3216 100.977 31.7853 106.514 31.1047C105.431 28.7959 105.865 26.0602 107.609 24.1996C109.354 22.3391 112.057 21.7296 114.432 22.6613C116.806 23.5929 118.373 25.8775 118.386 28.4276C118.385 29.3443 118.186 30.2499 117.804 31.0833ZM108.202 30.9281C109.5 30.8146 110.83 30.75 112.153 30.75C113.493 30.75 114.826 30.8092 116.115 30.9153C117.324 28.962 116.927 26.419 115.181 24.9265C113.434 23.434 110.859 23.4381 109.117 24.9363C107.375 26.4344 106.987 28.9786 108.202 30.9281Z" fill="#121214"/>
<path d="M204.455 170.609C204.061 170.69 203.671 170.795 203.29 170.924C189.163 175.739 174.635 179.287 159.878 181.526C158.162 181.794 155.884 181.899 154.063 182.523C152.328 178.463 150.893 174.281 149.77 170.011C148.112 163.521 146.26 158.868 146.113 148.04C146.113 148.04 145.609 137.888 150.731 123.734C151.812 120.765 153.476 115.991 154.394 112.963C155.631 108.742 156.407 104.399 156.708 100.011C156.981 92.9597 155.953 87.0997 156.462 80.0592C156.504 79.5032 154.221 72.127 148.842 65.1443L148.375 64.5252C147.493 61.9598 146.721 58.8121 146.784 56.1051C146.874 52.459 148.836 50.7172 151.534 50.4811C153.512 50.3133 155.984 51.8871 157.579 53.0675C172.683 64.2314 182.896 82.866 191.545 100.582C195.066 107.801 198.582 115.162 199.952 123.078C200.766 127.779 201.794 133.293 201.999 138.056C202.466 149.063 202.398 160.111 204.455 170.609Z" fill="#F9E3C5"/>
<path d="M182.034 119.038C182.142 113.848 181.039 107.314 179.561 101.601C177.004 91.718 172.924 79.591 168.373 73.4366C166.309 70.6451 163.505 67.6807 160.463 68.4489C158.193 69.0222 157.325 70.7034 156.897 73.0178C156.556 75.219 156.408 77.4459 156.456 79.6728" stroke="#121214" stroke-width="2" stroke-linecap="round"/>
<path d="M151.468 189.723C151.007 187.906 150.525 185.86 151.537 184.282C153.023 181.967 157.158 181.953 159.876 181.527C174.634 179.287 189.162 175.738 203.29 170.922C204.159 170.548 205.122 170.449 206.049 170.638C207.24 171.002 207.936 172.208 208.469 173.333C210.696 178.039 212.133 183.079 212.721 188.252C213.014 190.842 211.945 195.862 205.259 198.358C194.347 202.43 167.982 208.48 164.548 207.97C161.564 207.526 159.501 205.735 156.913 201.618C156.913 201.618 152.833 195.099 151.468 189.723Z" fill="#CD3C32"/>
<path d="M68.5261 74.1152C68.5104 74.1414 68.4841 75.5946 68.5051 76.1927C68.7046 83.2488 68.0171 90.9398 68.2166 97.9907C68.4756 102.383 69.2075 106.734 70.3997 110.97C71.2919 114.002 73.1234 119.972 74.0208 123.005C79.7307 142.316 72.247 163.453 68.6994 171.348C67.1145 174.874 65.6765 177.497 64.249 180.246C62.4909 179.695 60.3759 179.564 58.7596 179.296C44.0262 176.906 29.5351 173.209 15.4581 168.248C15.2114 168.164 14.9647 168.08 14.7076 168.012C18.208 158.081 22.4851 148.716 23.0677 137.736C23.3196 132.972 23.8812 125.302 24.7418 120.612C26.1903 112.712 29.7852 105.388 33.3801 98.2058C42.2126 80.5785 52.6088 62.0489 67.8281 51.0424C69.4393 49.8777 71.9216 48.3301 73.9001 48.5189C76.5977 48.7812 78.5447 50.544 78.5919 54.1901C78.6404 56.6023 78.205 58.9998 77.3113 61.241C77.3113 61.241 72.6616 65.8944 68.5261 74.1152Z" fill="#F9E3C5"/>
<path d="M68.5028 74.3977C68.171 69.0895 67.0526 66.9904 64.7883 66.3938C61.7542 65.5944 58.9205 68.5299 56.8276 71.3C52.2133 77.4074 48.0095 89.4919 45.3509 99.3485C43.8144 105.045 42.6446 111.568 42.6995 116.759" stroke="#121214" stroke-width="2" stroke-linecap="round"/>
<path d="M67.0815 187.577C67.5614 185.766 68.0649 183.724 67.0685 182.137C65.6061 179.807 61.4722 179.75 58.7581 179.296C44.0244 176.905 29.533 173.207 15.4555 168.246C14.5902 167.863 13.6285 167.754 12.6995 167.934C11.5052 168.285 10.7969 169.485 10.2525 170.604C7.97647 175.286 6.48812 180.312 5.84726 185.478C5.52725 188.066 6.54488 193.096 13.2053 195.66C24.074 199.844 50.3764 206.164 53.8148 205.689C56.8031 205.276 58.8852 203.506 61.5149 199.416C61.5149 199.416 65.6613 192.94 67.0815 187.577Z" fill="#CD3C32"/>
<path d="M104.216 39.677V35.1074" stroke="white" stroke-linecap="round"/>
<path d="M111.976 39.9474V33.2793" stroke="white" stroke-linecap="round"/>
<path d="M119.749 39.9199V34.8257" stroke="white" stroke-linecap="round"/>
<path d="M111.661 23.6245C120.529 28.7387 131.194 29.4278 141.207 29.3039C146.942 29.233 152.648 29.0046 158.379 29.3784C164.367 29.7154 170.299 30.7251 176.061 32.3884C185.879 35.3194 195.218 40.7736 201.446 49.0514C207.723 57.3942 210.494 67.7709 211.828 77.9762C213.565 91.2614 213.406 104.776 213.419 118.148C213.429 118.43 213.661 118.654 213.944 118.654C214.227 118.654 214.459 118.43 214.468 118.148C214.456 105.837 214.533 93.4555 213.255 81.1963C212.195 71.0338 210.014 60.6658 204.613 51.8507C199.354 43.2656 191.147 37.1035 181.898 33.3317C171.112 28.9331 159.287 27.911 147.74 28.1013C135.776 28.2986 122.942 28.9188 112.191 22.7185C111.942 22.5839 111.631 22.671 111.488 22.9154C111.345 23.1599 111.421 23.4735 111.661 23.6245V23.6245Z" fill="#121214"/>
<path fill-rule="evenodd" clip-rule="evenodd" d="M111.766 22.4397C117.479 15.7626 126.43 10.1593 134.273 6.19231C138.516 4.04626 142.977 2.16878 147.695 1.58235C152.414 0.995934 157.455 1.81753 161.273 4.65134C165.09 7.48516 167.4 12.5412 166.232 17.149C164.998 22.0224 160.261 25.3802 155.349 26.4589C150.438 27.5377 145.329 26.7606 140.369 25.9335C130.4 24.2711 122.31 21.2745 112.042 23.0285L111.766 22.4397Z" stroke="#121214" stroke-width="2"/>
<path fill-rule="evenodd" clip-rule="evenodd" d="M111.031 22.3958C103.568 16.8966 88.2761 6.4236 72.8665 9.69849C68.6074 10.6036 65.339 14.0199 63.1774 17.7984C61.2694 21.1334 60.3498 25.422 62.2293 28.7733C64.8115 33.3774 71.1426 34.0419 76.3919 33.4716C85.9689 32.431 99.3809 22.1066 110.624 23.2109L111.031 22.3958Z" stroke="#121214" stroke-width="2"/>
<path d="M110.264 22.8288C105.185 24.0232 101.062 26.9096 97.6285 30.7667C94.6135 34.1539 92.1378 38.2215 88.4479 40.9473C84.0248 44.2148 77.8444 45.3573 72.5118 46.1037C65.5964 47.0717 58.5948 47.287 51.664 48.1262C45.0486 48.9272 38.5371 50.33 32.3942 52.9672C26.9405 55.3195 21.9279 58.5842 17.5721 62.6211C8.89265 70.6432 2.87333 81.5415 1.10717 93.255C-0.999552 107.523 2.72839 122.038 11.4503 133.527C11.8559 134.055 12.768 133.533 12.3566 132.997C4.55567 122.754 0.770374 110.013 1.71357 97.1741C3.29824 78.9539 14.3183 62.8964 30.7528 54.8604C36.8221 51.926 43.3922 50.2891 50.0491 49.3823C56.8016 48.4624 63.6215 48.1687 70.392 47.4122C75.7291 46.8158 81.2307 45.8117 86.1237 43.5156C90.7398 41.3495 93.6221 37.23 96.7648 33.3979C100.476 28.8723 104.711 25.2119 110.543 23.8405C111.2 23.686 110.922 22.674 110.264 22.8288L110.264 22.8288Z" fill="#121214"/>
<path d="M110.733 21.7624L111.79 21.7179C112.447 21.6903 113.002 22.2003 113.03 22.857C113.043 23.1724 112.93 23.4802 112.717 23.7126C112.503 23.945 112.206 24.083 111.89 24.0963L110.833 24.1408C110.176 24.1685 109.621 23.6585 109.593 23.0017C109.58 22.6863 109.692 22.3786 109.906 22.1461C110.12 21.9137 110.417 21.7757 110.733 21.7624L110.733 21.7624Z" fill="#121214"/>
<path fill-rule="evenodd" clip-rule="evenodd" d="M140.105 119.13C140.048 119.083 139.99 119.039 139.931 118.995L139.931 118.995C139.907 118.978 139.884 118.96 139.861 118.943C139.839 118.926 139.816 118.908 139.794 118.89C139.791 118.889 139.789 118.886 139.788 118.884L139.786 118.882C139.784 118.88 139.782 118.878 139.78 118.877L139.759 118.864C137.732 117.253 135.444 116.002 132.993 115.167C135.15 115.342 137.317 115.348 139.475 115.186L139.475 115.186L139.492 115.184L139.502 115.184L139.522 115.183L139.531 115.182C139.561 115.179 139.59 115.171 139.617 115.157C139.786 115.13 139.941 115.049 140.06 114.927C140.154 114.858 140.192 114.736 140.153 114.626C140.115 114.516 140.01 114.444 139.893 114.448C136.186 114.317 132.48 114.148 128.776 113.94C128.676 113.941 128.578 113.96 128.485 113.995C128.002 113.737 127.503 113.482 126.988 113.232C127.566 113.013 128.162 112.847 128.77 112.735C131.548 112.197 134.425 112.542 137.24 112.93C137.475 112.962 137.71 112.69 137.496 112.491C136.63 111.689 135.009 111.656 133.683 111.628C133.325 111.621 132.989 111.614 132.695 111.593C131.779 111.479 130.849 111.538 129.955 111.767C129.869 111.793 129.709 111.838 129.499 111.897C128.697 112.123 127.171 112.552 126.276 112.895C125.981 112.758 125.684 112.622 125.385 112.488C128.33 111.281 131.428 110.641 134.542 110.006C134.923 109.928 134.949 109.603 134.744 109.513C134.016 109.193 132.288 109.628 131.211 109.934C129.003 110.558 126.834 111.312 124.716 112.192C124.624 112.152 124.532 112.112 124.44 112.072C125.856 111.25 127.315 110.503 128.81 109.835C129.38 109.591 129.972 109.395 130.563 109.2C131.459 108.904 132.355 108.607 133.176 108.142C133.454 107.985 133.25 107.622 132.974 107.663C129.693 108.149 126.886 109.871 124.137 111.627C124.132 111.63 124.048 111.672 123.946 111.725L123.801 111.798C123.452 111.65 123.107 111.505 122.766 111.364C123.684 110.883 124.573 110.351 125.43 109.768L131.704 106.149C131.814 106.08 131.857 105.942 131.807 105.823C131.757 105.704 131.628 105.639 131.502 105.669C130.13 105.972 128.927 106.793 127.761 107.589C127.492 107.773 127.225 107.955 126.957 108.13C126.58 108.376 126.204 108.627 125.828 108.879L125.828 108.879L125.828 108.879L125.828 108.879L125.828 108.879L125.828 108.879L125.828 108.879L125.827 108.879L125.827 108.879L125.827 108.879L125.827 108.879L125.827 108.879L125.827 108.879L125.827 108.879L125.827 108.879L125.827 108.879L125.827 108.879L125.827 108.879L125.827 108.879L125.827 108.879L125.827 108.879L125.827 108.879L125.827 108.879L125.827 108.879L125.827 108.879L125.827 108.879C125.626 109.013 125.426 109.147 125.225 109.28L122.093 111.086C121.812 110.971 121.533 110.858 121.262 110.748C121.141 110.7 121.02 110.65 120.898 110.601C120.8 110.561 120.703 110.521 120.605 110.481C120.859 110.257 121.099 110.015 121.338 109.773C121.803 109.302 122.268 108.832 122.839 108.493C122.872 108.474 122.905 108.457 122.938 108.44L122.976 108.42L122.993 108.411C123.629 108.211 124.307 108.084 124.978 107.959L124.978 107.959C125.507 107.86 126.031 107.762 126.526 107.63C128.209 107.172 129.732 106.258 130.929 104.989C131.128 104.782 130.864 104.402 130.611 104.577C129.66 105.281 128.647 105.897 127.584 106.416C126.578 106.801 125.542 107.102 124.486 107.317C123.897 107.459 123.326 107.665 122.782 107.931C121.549 108.257 120.504 109.073 119.889 110.19C119.339 109.965 118.788 109.735 118.237 109.5C119.596 107.855 121.68 107.322 123.765 106.788C125.271 106.403 126.778 106.017 128.013 105.213C128.086 105.163 128.131 105.081 128.133 104.993C128.134 104.905 128.093 104.821 128.022 104.768C127.992 104.702 127.936 104.651 127.867 104.628C127.799 104.604 127.723 104.61 127.659 104.643C126.498 105.238 125.154 105.582 123.805 105.928C121.408 106.542 118.992 107.162 117.545 109.194C116.873 108.898 116.21 108.588 115.554 108.266C117.218 107.079 119.149 106.322 121.177 106.062C122.813 105.797 124.353 105.113 125.645 104.076C125.704 104.032 125.737 103.963 125.734 103.89C125.73 103.817 125.691 103.751 125.629 103.713C125.602 103.641 125.546 103.584 125.475 103.556C125.404 103.527 125.325 103.53 125.256 103.563C123.508 104.391 121.689 105.059 119.821 105.558C118.237 105.998 116.747 106.721 115.422 107.694C115.412 107.702 115.355 107.747 115.285 107.802L115.285 107.802C115.198 107.871 115.092 107.956 115.031 108.003L115.028 108.007C114.712 107.845 114.402 107.673 114.092 107.501L114.091 107.501L113.967 107.432C114.602 106.962 115.212 106.459 115.794 105.923C116.437 105.351 117.181 104.904 117.989 104.605C118.414 104.486 118.848 104.387 119.284 104.304L119.332 104.298L119.373 104.292C119.436 104.284 119.499 104.275 119.563 104.27C119.603 104.267 119.641 104.255 119.676 104.236C120.902 104.043 122.137 103.915 123.377 103.853C123.712 103.832 123.716 103.313 123.377 103.328C119.731 103.49 115.709 104.099 113.125 106.956C112.734 106.727 112.345 106.495 111.962 106.252C112.505 106.015 112.937 105.867 113.314 105.738L113.314 105.738L113.315 105.738L113.315 105.738L113.315 105.738L113.315 105.738C113.632 105.63 113.911 105.534 114.184 105.41C114.337 105.366 114.489 105.314 114.636 105.254C115.161 105.033 115.671 104.78 116.181 104.526L116.181 104.526C116.431 104.401 116.682 104.276 116.934 104.155C117.602 103.84 118.293 103.578 119.002 103.37C119.305 103.296 119.607 103.222 119.904 103.154C119.944 103.145 119.981 103.127 120.012 103.1C120.657 102.946 121.307 102.806 121.951 102.668L121.952 102.668C122.336 102.586 122.718 102.504 123.096 102.42C123.426 102.346 123.286 101.844 122.957 101.914C122.712 101.966 122.467 102.017 122.223 102.068C121.36 102.248 120.502 102.427 119.658 102.647C119.338 102.726 119.02 102.812 118.705 102.902C116.122 103.479 113.64 104.441 111.345 105.759C111.324 105.773 111.304 105.791 111.288 105.811C111.26 105.792 111.232 105.774 111.204 105.755L111.151 105.719C112.833 104.252 114.491 102.938 116.676 102.316C117.182 102.171 117.692 102.048 118.199 101.924L118.199 101.924L118.2 101.924L118.2 101.924L118.2 101.924L118.2 101.924L118.2 101.924L118.2 101.924L118.2 101.924L118.2 101.924L118.2 101.924L118.2 101.924L118.2 101.924L118.201 101.924L118.201 101.924L118.201 101.924L118.201 101.924L118.201 101.924L118.201 101.924L118.201 101.924L118.201 101.924L118.201 101.924L118.201 101.924L118.201 101.924L118.202 101.924L118.202 101.924C119.459 101.618 120.708 101.315 121.878 100.709C122.152 100.567 121.955 100.17 121.675 100.23C117.643 101.09 113.448 102.138 110.645 105.383C110.352 105.183 110.061 104.979 109.773 104.772C109.799 104.739 109.825 104.705 109.851 104.672L109.851 104.672C109.91 104.595 109.969 104.519 110.033 104.446C111.676 103.024 113.675 102.236 115.679 101.445C117.008 100.921 118.34 100.395 119.571 99.6832C119.821 99.5389 119.655 99.0985 119.369 99.2038C118.782 99.4199 118.174 99.6275 117.557 99.8381C114.731 100.803 111.723 101.83 109.726 104.019C109.535 104.201 109.404 104.332 109.308 104.435C109.266 104.404 109.223 104.373 109.181 104.343C109.126 104.303 109.071 104.264 109.016 104.223C109.357 103.916 109.697 103.606 110.037 103.296L110.037 103.296L110.037 103.296L110.037 103.296L110.038 103.296L110.038 103.296L110.038 103.295L110.038 103.295L110.038 103.295L110.039 103.295L110.039 103.295L110.039 103.294L110.039 103.294L110.039 103.294L110.04 103.294L110.04 103.294L110.04 103.294L110.04 103.293L110.04 103.293L110.041 103.293L110.041 103.293L110.041 103.293L110.041 103.292L110.041 103.292L110.042 103.292L110.042 103.292C110.939 102.474 111.837 101.655 112.763 100.874C114.32 99.5616 116.05 99.0498 118.007 98.647C118.13 98.6092 118.208 98.4876 118.191 98.3598C118.173 98.232 118.066 98.1355 117.937 98.1318C114.252 98.2782 111.925 100.568 109.49 102.965C109.188 103.262 108.884 103.562 108.575 103.859C108.571 103.862 108.562 103.869 108.554 103.875C107.995 103.449 107.445 103.012 106.903 102.563C108.903 102.346 110.424 101.006 110.865 100.618L110.865 100.617C110.889 100.597 110.909 100.579 110.926 100.564C111.265 100.27 111.605 99.9974 111.949 99.7412C113.124 98.8689 114.458 98.2328 115.875 97.8682C115.915 97.8625 115.954 97.8557 115.993 97.8489C116.051 97.8388 116.109 97.8287 116.168 97.8224C116.5 97.787 116.504 97.262 116.168 97.2978C116.157 97.2989 116.147 97.3005 116.137 97.3021L116.137 97.3021L116.137 97.3021L116.136 97.3021C116.127 97.3036 116.117 97.3051 116.107 97.3062C116.066 97.2939 116.022 97.292 115.979 97.3006C115.927 97.3114 115.876 97.3238 115.824 97.3362L115.824 97.3363L115.79 97.3445C115.771 97.3491 115.752 97.3536 115.732 97.358C114.308 97.5881 112.945 98.1065 111.727 98.8814C111.291 99.1509 110.885 99.515 110.456 99.8993C109.779 100.507 109.045 101.165 108.048 101.579C107.602 101.715 107.147 101.824 106.694 101.931C107.198 101.385 107.76 100.896 108.37 100.471C108.618 100.277 108.861 100.078 109.105 99.8783L109.105 99.8782L109.105 99.8779L109.106 99.8777L109.106 99.8775L109.106 99.8772C109.407 99.6306 109.708 99.3841 110.017 99.1472C110.693 98.6611 111.413 98.2382 112.167 97.8839C113.365 97.4356 114.614 97.1413 115.886 97.0079C116.181 96.968 116.107 96.4852 115.816 96.4926C114.386 96.53 112.983 96.8833 111.706 97.5273C111.1 97.7927 110.526 98.1233 109.992 98.5134C108.806 99.2957 107.691 100.181 106.66 101.158C106.562 101.239 106.214 101.59 106.003 101.81C105.915 101.735 105.828 101.659 105.74 101.584C106.705 100.11 108.374 98.7828 109.756 97.793C111.244 96.7275 112.732 95.6624 114.221 94.5977C114.34 94.5221 114.378 94.3656 114.307 94.2436C114.236 94.1217 114.081 94.078 113.956 94.1448C110.542 95.7602 107.554 98.154 105.233 101.134C105.169 101.077 105.104 101.02 105.039 100.963C104.885 100.827 104.73 100.691 104.578 100.552C105.782 99.1965 107.293 98.0452 108.795 96.9006L108.795 96.9006L108.795 96.9006L108.795 96.9006L108.795 96.9005L108.795 96.9005L108.795 96.9005L108.795 96.9005L108.795 96.9005L108.795 96.9004L108.795 96.9004L108.795 96.9004L108.795 96.9004L108.795 96.9003L108.795 96.9003L108.795 96.9003L108.795 96.9003L108.795 96.9002L108.795 96.9002L108.795 96.9002L108.795 96.9002L108.795 96.9002L108.795 96.9001L108.796 96.9001L108.796 96.9C110.031 95.9586 111.261 95.0217 112.308 93.9794C112.397 93.8851 112.405 93.7402 112.325 93.6376C112.246 93.535 112.104 93.5052 111.99 93.5674C109.093 95.4082 106.424 97.5854 104.039 100.054L103.962 99.9815C103.702 99.7409 103.443 99.5003 103.187 99.256C103.315 99.1809 103.441 99.1046 103.564 99.0261C103.58 99.0201 103.594 99.0126 103.608 99.0038C103.611 99.0015 103.614 98.999 103.617 98.9965L103.618 98.9958C103.621 98.9931 103.624 98.9904 103.627 98.9879C104.874 98.1475 105.985 97.1209 106.921 95.9437C107.091 95.7409 107.262 95.5496 107.435 95.3664C108.481 94.9512 109.535 94.556 110.602 94.1966C110.737 94.1542 110.814 94.0126 110.776 93.8763C110.738 93.74 110.6 93.658 110.462 93.6907C109.929 93.827 109.397 93.9686 108.867 94.1157C109.825 93.4418 110.908 92.9656 112.053 92.715C112.176 92.6771 112.254 92.5556 112.236 92.4278C112.219 92.3 112.112 92.2035 111.983 92.1997C110.374 92.1407 108.825 92.8134 107.77 94.0293C107.589 94.2201 107.41 94.4124 107.233 94.6061C105.365 95.1671 103.618 96.0698 102.079 97.2684C102.051 97.2833 102.025 97.3033 102.003 97.3274C101.866 97.4484 101.74 97.5822 101.629 97.7269C101.21 97.3059 100.796 96.8821 100.386 96.4556C101.452 95.5698 102.741 95.0351 104.016 94.5062L104.016 94.5061L104.017 94.506L104.017 94.5059L104.017 94.5059L104.017 94.5058L104.017 94.5058L104.017 94.5057L104.018 94.5056L104.018 94.5056L104.018 94.5055L104.018 94.5054L104.018 94.5054L104.018 94.5053L104.018 94.5052L104.019 94.5052L104.019 94.5051L104.019 94.5051L104.02 94.5047L104.02 94.5047L104.02 94.5047L104.02 94.5047L104.02 94.5046L104.02 94.5046C104.248 94.4099 104.476 94.3154 104.702 94.2191L109.644 92.1132C109.924 91.9938 109.721 91.5634 109.442 91.6338C106.542 92.3647 103.767 93.5232 101.208 95.0713C102.984 92.5437 105.79 91.116 108.551 89.8071C108.806 89.686 108.653 89.3364 108.419 89.3183C106.688 89.1848 105.059 90.4355 103.755 91.4397C102.193 92.656 100.826 94.1038 99.7015 95.733C99.1769 95.177 98.6587 94.6191 98.1471 94.0593C98.1877 94.0187 98.2213 93.9859 98.2349 93.9755C99.5972 92.9262 101.119 92.1467 102.641 91.3671C104.157 90.5901 105.674 89.8131 107.033 88.769L107.05 88.76L107.049 88.7579C107.057 88.7512 107.066 88.7451 107.075 88.739L107.087 88.7307C107.093 88.7269 107.098 88.723 107.103 88.7189C107.346 88.5305 107.037 88.1703 106.785 88.3069C104.98 89.2873 103.145 90.2009 101.297 91.0978C99.9453 91.6725 98.726 92.5188 97.7149 93.584C97.6118 93.47 97.5095 93.356 97.4073 93.242L97.299 93.1214C98.5873 91.5921 100.33 90.7141 102.077 89.8333C103.499 89.1168 104.924 88.3985 106.112 87.3262C106.298 87.1579 106.103 86.79 105.857 86.8877C102.781 88.1074 99.1808 90.1931 96.7768 92.5407L96.6639 92.4137L96.5667 92.3042C96.8141 92.107 97.0483 91.8938 97.2678 91.666C98.2792 90.752 99.4149 89.9827 100.549 89.2142C101.922 88.2844 103.293 87.3559 104.439 86.1738C104.643 85.9645 104.38 85.6002 104.121 85.7619C101.534 87.3781 98.9693 89.0521 96.8975 91.2943L96.8029 91.3795L96.8028 91.3796L96.8028 91.3796L96.8028 91.3797L96.8028 91.3797L96.8027 91.3797L96.8027 91.3797L96.8027 91.3797L96.8027 91.3797L96.8027 91.3797L96.8027 91.3797L96.8027 91.3797L96.8027 91.3798L96.8027 91.3798L96.8026 91.3798L96.8026 91.3798L96.8026 91.3798L96.8026 91.3798L96.8026 91.3798L96.8026 91.3798L96.8026 91.3799L96.8026 91.3799L96.8025 91.3799L96.8025 91.3799L96.8025 91.3799L96.8025 91.3799C96.6265 91.5383 96.4504 91.6968 96.2845 91.8671C96.2717 91.8801 96.253 91.9019 96.2338 91.9243L96.2336 91.9245L96.2335 91.9246L96.2335 91.9246L96.2324 91.9259C95.7436 91.3734 95.2604 90.8237 94.783 90.2768C94.7871 90.2722 94.7909 90.2674 94.7948 90.2626C94.7985 90.2581 94.8022 90.2535 94.8061 90.249C96.0793 89.4223 97.4734 88.834 98.8667 88.246C100.497 87.5581 102.126 86.8707 103.558 85.8026C103.678 85.7269 103.716 85.5703 103.644 85.4484C103.573 85.3264 103.418 85.2827 103.293 85.3496L97.6689 87.9443C97.4979 88.0232 97.3254 88.1003 97.1529 88.1773C96.1631 88.6195 95.1717 89.0625 94.4436 89.8576L94.4291 89.8667L94.4267 89.8691C94.078 89.469 93.7326 89.0719 93.3903 88.6777C93.4018 88.6777 93.4133 88.6767 93.4246 88.6748C95.4262 88.1287 97.402 87.5006 99.3436 86.7687C99.5582 86.6878 99.7809 86.6092 100.007 86.5294C101.181 86.1153 102.451 85.6672 103.199 84.6812C103.374 84.4502 103.048 84.2238 102.84 84.3223C102.751 84.3647 102.661 84.4069 102.571 84.4491L102.57 84.4493L102.57 84.4495L102.57 84.4496L102.569 84.4497C102.491 84.4866 102.412 84.5235 102.334 84.5605C102.247 84.2425 102.156 83.9261 102.061 83.6112C102.098 83.5125 102.065 83.4011 101.98 83.3388C101.065 80.3734 99.7941 77.5295 98.1958 74.8692L98.3452 74.8657C98.5682 74.8607 98.7911 74.8556 99.0138 74.8493C99.0235 74.874 99.0373 74.8968 99.0546 74.9168C99.7256 75.6006 100.36 76.3193 100.956 77.0697C101.228 79.3262 101.801 81.536 102.66 83.6402L102.662 83.6481L102.663 83.6477C102.668 83.6575 102.671 83.6674 102.675 83.6773L102.675 83.6774L102.68 83.6907C102.683 83.6974 102.686 83.7041 102.689 83.7108C102.811 83.9893 103.24 83.7877 103.168 83.5087C102.738 81.8289 102.35 80.1403 102.005 78.443C102.312 78.868 102.614 79.2999 102.91 79.7388C103.695 81.0603 104.764 82.1913 106.04 83.0501C106.289 83.2008 106.588 82.8353 106.358 82.6381C105.304 81.7375 104.507 80.6357 103.706 79.5282L103.706 79.5281C103.399 79.1042 103.092 78.6794 102.769 78.2648C102.431 77.8296 102.075 77.407 101.713 76.9884C101.572 76.2514 101.439 75.5126 101.314 74.7722C101.751 74.7556 102.187 74.7386 102.622 74.721C103.971 75.8586 104.686 77.4235 105.405 78.9954C105.903 80.0848 106.403 81.1775 107.116 82.1336C107.276 82.3489 107.712 82.2341 107.595 81.9314C107.006 80.3848 106.292 78.8884 105.46 77.457C105.36 77.2861 105.255 77.0923 105.144 76.8871C104.724 76.1116 104.215 75.1725 103.54 74.684L103.749 74.6755L104.295 74.6534C104.379 74.6499 104.465 74.6455 104.551 74.641C104.614 74.6377 104.676 74.6345 104.738 74.6316C104.845 74.7763 104.952 74.9214 105.058 75.0668C105.269 75.4821 105.518 75.8774 105.8 76.2477C106.629 77.295 107.308 78.4523 107.818 79.6866C108.1 80.4054 108.363 81.1279 108.625 81.8495L108.625 81.8495L108.625 81.8496L108.625 81.8496L108.625 81.8496L108.625 81.8497L108.625 81.8497L108.625 81.8497L108.625 81.8497L108.625 81.8498L108.625 81.8498L108.625 81.8498L108.625 81.8499L108.625 81.8499L108.625 81.8499L108.625 81.8499L108.625 81.85L108.625 81.85L108.626 81.85L108.626 81.8501L108.626 81.8501L108.626 81.8501L108.626 81.8501L108.626 81.8502L108.626 81.8502L108.626 81.8502C109.06 83.0443 109.493 84.2362 110.011 85.4062L110.012 85.4077L110.012 85.4076C110.017 85.4179 110.021 85.4284 110.025 85.4389L110.032 85.4573L110.038 85.4704C110.168 85.7607 110.565 85.5387 110.518 85.2682C109.983 82.5354 108.926 79.9311 107.406 77.5976C107.269 77.3617 107.126 77.1292 106.967 76.905L106.965 76.9016C106.501 76.1888 106.013 75.4901 105.512 74.8024C105.493 74.7651 105.478 74.7253 105.463 74.6855L105.463 74.6855L105.463 74.6855L105.463 74.6855L105.463 74.6854L105.463 74.6854C105.452 74.6559 105.441 74.6263 105.428 74.5978L105.635 74.587L105.635 74.587C105.921 74.5721 106.208 74.5572 106.497 74.5407C106.5 74.5524 106.504 74.5638 106.509 74.5748C108.153 77.4083 109.63 80.3345 110.935 83.3389C111.053 83.6109 111.507 83.4172 111.415 83.1367C110.411 80.0938 109.026 77.1904 107.292 74.4958C107.501 74.484 107.71 74.4735 107.919 74.463H107.919H107.919H107.919H107.919H107.919H107.919H107.919H107.919H107.919H107.919H107.919H107.919H107.919H107.919H107.919H107.919H107.919H107.919H107.919H107.919H107.919H107.919H107.919H107.919H107.919L108.218 74.4478C108.617 76.2289 109.641 77.9745 110.556 79.5304C111.398 81.0371 112.533 82.3599 113.894 83.4209L113.897 83.4239L113.897 83.4233C113.906 83.4297 113.914 83.4363 113.922 83.443L113.939 83.4566L113.95 83.465C114.203 83.6529 114.449 83.2643 114.268 83.053C112.041 80.4577 109.951 77.7191 108.957 74.4104C109.136 74.4024 109.313 74.397 109.49 74.3916C109.574 74.389 109.659 74.3864 109.744 74.3836C109.759 74.4069 109.775 74.4304 109.79 74.4539L109.79 74.4542L109.79 74.4544C109.808 74.4832 109.827 74.5119 109.846 74.5403L109.849 74.5472C110.103 74.928 110.352 75.3128 110.6 75.6976L110.6 75.698L110.6 75.6985L110.601 75.699L110.601 75.6995L110.601 75.6997C110.748 75.9264 110.894 76.1531 111.041 76.3789C112.33 78.4303 113.519 80.5397 114.609 82.7072C114.752 82.992 115.134 82.7781 115.088 82.5051C114.896 81.3515 114.241 80.3486 113.604 79.3731L113.603 79.3727C113.472 79.1713 113.341 78.971 113.215 78.7707C112.305 77.3228 111.375 75.8882 110.424 74.4669C110.408 74.4432 110.392 74.4192 110.377 74.3952L110.357 74.3645C110.403 74.3634 110.45 74.3617 110.497 74.36C110.553 74.3579 110.61 74.3558 110.666 74.3549C110.841 74.352 111.018 74.3498 111.195 74.3479C111.197 74.3525 111.198 74.3571 111.2 74.3616L111.202 74.3668L111.205 74.3736C113.001 77.0715 115.865 80.1393 119.124 80.9142C119.399 80.9797 119.608 80.5632 119.326 80.4348C117.803 79.7363 116.439 78.735 115.317 77.4919C114.934 77.0769 114.463 76.6944 113.987 76.3084L113.987 76.3083C113.248 75.708 112.498 75.099 112.05 74.3452C112.404 74.347 112.76 74.3543 113.118 74.3671L113.12 74.3696L113.122 74.3719L113.124 74.375C113.126 74.3782 113.128 74.3813 113.132 74.3842C114.837 75.8791 116.656 77.2402 118.571 78.4553C119.482 79.007 120.495 79.3704 121.55 79.5243C121.728 79.7419 121.919 79.949 122.121 80.1444C122.967 80.9419 123.965 81.5623 125.054 81.969C125.556 83.4189 126.302 84.7198 127.633 85.4085C127.846 85.5188 128.156 85.2784 127.992 85.0496C127.287 84.1306 126.688 83.1353 126.205 82.0823C126.239 81.9638 126.189 81.8376 126.083 81.774C126.003 81.5589 125.928 81.3405 125.867 81.1142C125.541 79.96 125.148 78.826 124.688 77.7182C125.232 77.9098 125.778 78.0945 126.328 78.2662C126.319 78.319 126.326 78.3734 126.349 78.422C126.469 78.6789 126.59 78.9408 126.712 79.2056C128.104 82.2207 129.664 85.602 133.322 86.0884C133.609 86.1265 133.649 85.7144 133.455 85.5996C133.275 85.4931 133.092 85.3874 132.909 85.281C131.593 84.518 130.226 83.7251 129.319 82.4292C128.483 81.2579 127.769 80.0031 127.191 78.6848C127.224 78.6876 127.253 78.6857 127.283 78.6838C127.305 78.6824 127.326 78.6811 127.348 78.6814C127.819 79.1074 128.199 79.6345 128.578 80.1615L128.578 80.1616C128.861 80.5547 129.144 80.9477 129.465 81.2988C130.241 82.1378 131.114 82.8821 132.065 83.5162C132.309 83.681 132.615 83.2942 132.383 83.1042C131.057 81.92 129.858 80.6005 128.806 79.1672C128.901 79.1805 128.991 79.1945 129.08 79.2085L129.081 79.2085L129.143 79.2184C130.157 80.3002 131.362 81.1489 132.567 81.9973C133.845 82.8973 135.122 83.7969 136.17 84.9741C136.397 85.2281 136.759 84.8577 136.541 84.6032C134.902 82.6827 132.869 81.2401 130.825 79.7906L130.823 79.7888C130.66 79.673 130.496 79.5572 130.333 79.4411C130.794 79.5427 131.231 79.6546 131.709 79.777L131.71 79.7771L131.711 79.7775C131.956 79.8401 132.211 79.9054 132.485 79.9735C132.858 80.0659 133.248 80.1796 133.649 80.2963C134.905 80.6621 136.261 81.057 137.473 80.9151C137.756 80.8819 137.849 80.4705 137.543 80.3998C137.108 80.2994 136.309 80.1352 135.384 79.9453L135.383 79.945L135.383 79.945C133.348 79.527 130.705 78.9842 130.002 78.7213C130.494 78.6581 130.975 78.5559 131.457 78.4532L131.457 78.4532L131.457 78.4532L131.457 78.4532L131.457 78.4532L131.457 78.4532L131.457 78.4532C131.908 78.3572 132.36 78.261 132.825 78.1961C133.789 78.1358 134.749 78.019 135.699 77.8461C135.81 77.8122 135.886 77.7095 135.886 77.5932C135.886 77.4768 135.81 77.3741 135.699 77.3402C134.737 77.1314 133.743 77.1059 132.771 77.2651C132.185 77.3612 131.621 77.5372 131.056 77.713C130.524 77.879 129.991 78.0449 129.442 78.1431C129.904 77.7946 130.348 77.4222 130.771 77.0272C132.295 75.7353 133.952 74.9082 135.973 75.162C136.309 75.2015 136.303 74.6788 135.973 74.6373C135.612 74.5897 135.248 74.5696 134.885 74.5773C133.757 74.581 132.644 74.8267 131.62 75.298C130.975 75.5942 130.374 75.9781 129.835 76.4389C129.631 76.6131 129.437 76.8146 129.243 77.0172L129.243 77.0173C128.834 77.4426 128.421 77.8726 127.899 78.0642C127.431 77.9047 126.968 77.7344 126.505 77.5642L126.321 77.4965C126.911 77.1903 127.402 76.5321 127.817 75.9742L127.818 75.9741C127.935 75.8168 128.046 75.6675 128.152 75.5363C128.428 75.1939 128.692 74.8428 128.95 74.4878C130.031 73.9798 131.117 73.4848 132.215 73.0141C132.455 72.9283 132.688 72.827 132.914 72.711C133.171 72.5757 132.989 72.1149 132.712 72.2316C132.701 72.2361 132.69 72.2408 132.68 72.2455L132.68 72.2455L132.68 72.2455L132.679 72.2455C132.669 72.25 132.659 72.2544 132.649 72.2587L132.649 72.258C132.643 72.2613 132.636 72.2641 132.63 72.2668C132.624 72.2694 132.617 72.272 132.611 72.2751C132.485 72.3282 132.36 72.3832 132.235 72.4382L132.235 72.4383L132.235 72.4383C132.141 72.4794 132.048 72.5205 131.954 72.5608C131.274 72.7929 130.581 72.9837 129.878 73.1321C130.1 72.7861 130.317 72.4368 130.525 72.0815C130.587 71.9678 130.558 71.8258 130.455 71.7467C130.352 71.6675 130.207 71.6747 130.113 71.7636C129.584 72.3041 129.088 72.8755 128.627 73.4746C128.228 73.5976 127.843 73.7602 127.477 73.96C126.093 74.6838 124.768 75.5133 123.513 76.4412L123.488 76.4317C123.431 76.4099 123.34 76.3746 123.222 76.3286L123.221 76.3283C123.103 76.2825 122.958 76.226 122.792 76.1615C124.469 75.1842 125.579 73.6096 126.523 71.9319C127.415 71.5323 128.333 71.1923 129.27 70.9142C129.541 70.8348 129.505 70.3631 129.2 70.3989C129.188 70.4004 129.176 70.4025 129.164 70.4045C129.153 70.4065 129.142 70.4084 129.131 70.4098L129.13 70.4083L129.121 70.4113C128.432 70.5025 127.754 70.66 127.095 70.8818C127.113 70.8474 127.178 70.7409 127.244 70.6334C127.312 70.5227 127.381 70.4108 127.399 70.3753C127.461 70.2616 127.431 70.1197 127.329 70.0406C127.226 69.9615 127.081 69.9686 126.987 70.0574C126.767 70.2796 126.457 70.6711 126.2 70.9958L126.2 70.9959L126.2 70.996L126.2 70.9961L126.2 70.9963L126.199 70.997C126.104 71.117 126.016 71.2278 125.943 71.3176C125.118 71.6644 124.263 72.0861 123.39 72.5161C121.763 73.3185 120.076 74.1501 118.414 74.5795C117.675 74.3282 116.921 74.1212 116.157 73.9597C115.903 73.913 115.649 73.8742 115.394 73.8397C116.21 73.5636 117.089 73.4316 117.959 73.3009C118.545 73.2129 119.128 73.1254 119.684 72.9949C121.515 72.6024 123.249 71.8476 124.784 70.7749C124.903 70.6993 124.941 70.5427 124.87 70.4206C124.799 70.2986 124.644 70.2549 124.519 70.3219C122.72 71.3177 120.77 72.0114 118.746 72.3752C118.483 72.4214 118.216 72.4647 117.946 72.5084L117.946 72.5084L117.945 72.5084L117.945 72.5084L117.945 72.5084L117.945 72.5084L117.945 72.5084L117.945 72.5085L117.945 72.5085L117.945 72.5085L117.945 72.5085L117.945 72.5085L117.945 72.5085C116.555 72.7334 115.093 72.97 113.767 73.6894C112.914 73.6423 112.069 73.6378 111.246 73.6474C112.505 73.1112 113.843 72.778 115.178 72.4457C115.877 72.2717 116.575 72.0979 117.26 71.8954C117.561 71.8065 117.897 71.7195 118.253 71.6275L118.253 71.6275C119.742 71.2422 121.564 70.7708 122.465 69.7229C122.616 69.5463 122.476 69.1778 122.209 69.2845C120.056 70.1456 117.845 70.8247 115.626 71.4917C115.169 71.629 114.692 71.7503 114.21 71.8729L114.21 71.8729C112.784 72.2358 111.311 72.6106 110.155 73.4508C110.073 73.5114 109.999 73.5827 109.936 73.6629L109.637 73.6662C109.41 73.6688 109.183 73.6714 108.956 73.673C111.323 70.4928 115.064 69.035 118.671 67.7015C118.983 67.5831 118.85 67.0778 118.532 67.1956C117.797 67.4745 117.065 67.6848 116.343 67.8923C114.879 68.3128 113.454 68.7222 112.119 69.6693C110.815 70.5951 109.003 71.9137 108.422 73.5109C108.403 73.5703 108.389 73.6242 108.375 73.6773C107.989 73.6801 107.604 73.6837 107.219 73.6883C107.258 73.6333 107.295 73.5778 107.332 73.5222C107.37 73.4662 107.408 73.4102 107.446 73.3548C108.627 71.9265 109.933 70.6056 111.347 69.4074C112.778 68.0517 114.424 66.9425 116.218 66.1248C116.512 65.9891 116.283 65.6066 116.016 65.6454C114.028 65.9341 112.434 67.3587 110.979 68.6591L110.836 68.7867C109.411 70.0449 108.138 71.4654 107.044 73.0192C106.92 73.183 106.796 73.3475 106.68 73.5182C106.662 73.5448 106.65 73.5745 106.643 73.6057C106.624 73.6367 106.603 73.6668 106.581 73.6968C106.093 73.7039 105.608 73.7152 105.125 73.7304C105.333 73.5 105.542 73.2702 105.751 73.0402C106.716 71.9799 107.684 70.9162 108.55 69.7797C108.878 69.349 109.183 68.905 109.489 68.4622L109.489 68.4622L109.489 68.4622L109.489 68.4621L109.489 68.4621C110.16 67.4881 110.827 66.5196 111.717 65.7096C111.968 65.4811 111.598 65.1162 111.346 65.3386C109.833 66.6748 108.639 68.2823 107.445 69.8907L107.445 69.8907C106.45 71.2311 105.454 72.5722 104.272 73.7573C103.515 73.7877 102.749 73.817 101.975 73.8451C105.005 71.8369 107.265 68.8617 108.387 65.4046C108.418 65.2789 108.352 65.1494 108.233 65.0991C108.114 65.0489 107.976 65.0926 107.907 65.2024C106.363 68.2766 104.015 70.7511 101.566 73.1176C102.16 72.303 102.708 71.4542 103.252 70.5963C104.482 68.7253 105.867 66.9613 107.394 65.3231C107.49 65.2196 107.487 65.0585 107.387 64.9586C107.288 64.8587 107.126 64.8558 107.023 64.9521C104.117 67.3415 101.789 70.3574 100.214 73.7738L100.19 73.8091L100.17 73.8376L100.169 73.838L100.148 73.8685L100.125 73.9023C99.821 73.9102 99.5164 73.9172 99.2109 73.9234C99.8687 73.051 100.371 72.0903 100.877 71.1231C101.114 70.6698 101.352 70.2151 101.607 69.7673C102.856 67.5735 104.737 66.1679 106.824 64.8148C106.943 64.7392 106.981 64.5826 106.91 64.4606C106.839 64.3386 106.684 64.2949 106.559 64.3618C102.512 66.2376 99.9857 69.9181 98.3495 73.9368C97.7953 73.9442 97.2391 73.9473 96.681 73.9461C98.6282 70.9292 100.923 68.1513 103.518 65.6692C103.764 65.4342 103.397 65.074 103.147 65.2982C102.95 65.4747 102.755 65.6531 102.559 65.8316L102.43 65.9488C102.41 65.8673 102.354 65.7994 102.278 65.7637C102.202 65.7281 102.113 65.7285 102.038 65.7649C101.591 66.0176 101.133 66.2716 100.667 66.5295C99.9437 66.9305 99.2031 67.3408 98.4659 67.7698C99.1335 66.8336 99.862 65.9424 100.647 65.1019C100.842 64.8962 100.574 64.5011 100.329 64.6899C100.32 64.6969 100.311 64.7044 100.302 64.712L100.302 64.712C100.294 64.7191 100.286 64.7263 100.277 64.7331L100.276 64.7309L100.263 64.7449C98.7143 65.9467 97.3916 67.4144 96.3569 69.0793C95.8788 69.398 95.4079 69.7259 94.9563 70.0727C94.5999 70.3128 94.2553 70.5662 93.9223 70.8329C94.0142 70.5788 94.105 70.3239 94.1958 70.0686L94.1959 70.0682C94.2908 69.8016 94.3858 69.5346 94.4826 69.2677C95.2547 67.0681 96.5268 65.0775 98.1989 63.4525C98.402 63.2495 98.1235 62.8542 97.8808 63.0405C97.8715 63.0477 97.8628 63.0552 97.854 63.0626L97.854 63.0627L97.854 63.0627V63.0627C97.8458 63.0696 97.8376 63.0766 97.8291 63.0833L97.8278 63.0816L97.8142 63.0956C97.034 63.7063 96.3334 64.4122 95.7287 65.1969C95.6261 65.121 95.4844 65.1265 95.388 65.2102C92.9313 67.5079 91.1383 70.424 90.197 73.6527C90.0264 73.6361 89.8561 73.6173 89.6858 73.5985L89.6856 73.5984L89.5679 73.5855C90.4352 70.1424 92.0535 66.9336 94.3068 64.189C94.4031 64.0856 94.4002 63.9244 94.3002 63.8245C94.2002 63.7246 94.039 63.7217 93.9356 63.8181C91.1646 66.4092 89.9422 69.969 88.8619 73.5056C86.6817 73.2447 84.5274 72.7999 82.4222 72.1759C82.0545 71.2459 81.7354 70.2974 81.4661 69.3343C81.3579 68.9431 81.153 68.7023 80.553 68.9576C80.4148 68.9985 80.299 69.0932 80.2315 69.2205C80.164 69.3477 80.1505 69.4967 80.1941 69.634C81.8532 76.1507 86.2824 81.7101 90.5074 86.6125C89.3087 87.7192 88.0135 88.7167 86.6373 89.5932C86.2923 89.8108 85.9334 90.01 85.5744 90.2092L85.5743 90.2092L85.5743 90.2092L85.5743 90.2092L85.5743 90.2093L85.5743 90.2093L85.5743 90.2093L85.5742 90.2093L85.5742 90.2093L85.5742 90.2093L85.5742 90.2093L85.5742 90.2093L85.5742 90.2094L85.5741 90.2094L85.5741 90.2094L85.5741 90.2094L85.5741 90.2094L85.5741 90.2094L85.5741 90.2094L85.574 90.2094L85.574 90.2094L85.574 90.2095L85.574 90.2095C84.7927 90.643 84.0106 91.0771 83.3696 91.7025C83.2893 91.7877 83.2747 91.9156 83.3336 92.0168C83.3925 92.118 83.511 92.1685 83.6248 92.1409C86.4493 91.6663 89.1178 89.2273 90.9645 87.1417L91.1242 87.3258C89.9466 88.859 88.9566 90.5275 88.1752 92.2957C88.0538 92.5617 87.9237 92.8344 87.791 93.1125C87.1426 94.4716 86.4335 95.958 86.3869 97.4025C86.3901 97.5192 86.4694 97.62 86.5821 97.6505C86.6948 97.681 86.8142 97.634 86.8758 97.5349C87.4264 96.6303 87.7802 95.5818 88.1293 94.5473C88.3074 94.0195 88.4842 93.4953 88.6854 92.9957C89.3948 91.1363 90.3402 89.3758 91.4984 87.7572L92.3823 88.7736C91.938 89.4306 91.525 90.1038 91.1369 90.7895C90.3611 92.0618 89.6319 93.3615 88.9689 94.6989L88.8469 94.9447C88.0066 96.6354 87.1282 98.4029 87.0587 100.315C87.0474 100.626 87.4781 100.65 87.5742 100.385C88.6621 97.1292 90.0261 93.9724 91.6513 90.9487C92.0106 90.3629 92.3845 89.7859 92.7644 89.2126L93.0583 89.5502L93.225 89.7417C93.0829 89.9526 92.7107 90.5076 92.7099 90.5419C90.9296 93.5023 89.2263 97.393 89.4473 100.876C89.465 101.153 89.9058 101.253 89.9628 100.945C90.6364 97.2875 91.7985 93.7368 93.4179 90.3884C93.4204 90.3805 93.4225 90.3725 93.4241 90.3643L93.5773 90.1464C93.6301 90.2068 93.6832 90.2675 93.7364 90.3282L93.8636 90.4734L93.8154 90.571C93.8082 90.5792 93.8016 90.5878 93.7957 90.597C92.7914 92.6979 92.0424 94.8712 92.2564 97.1747C91.4443 99.0735 90.6963 101.321 90.9349 103.405C90.9402 103.546 91.0561 103.658 91.1973 103.658C91.3385 103.658 91.4544 103.546 91.4597 103.405C91.6987 101.618 92.1603 99.867 92.8337 98.194C92.8778 98.1494 92.9042 98.0903 92.9078 98.0277L92.9095 97.9996C93.6749 96.1426 94.6944 94.4008 95.939 92.8241L96.0161 92.9106L96.1067 93.0122C94.9743 94.8066 93.9702 96.6787 93.1017 98.6146C92.3138 100.447 91.471 102.571 91.6769 104.601C91.7039 104.868 92.1445 104.988 92.1923 104.671C92.7994 100.638 94.5207 96.9683 96.4944 93.4406L96.5711 93.5257L96.5716 93.5262L96.572 93.5267C96.7803 93.7578 96.9885 93.9889 97.1997 94.2201C96.7301 95.1233 96.2935 96.0398 95.8898 96.9695C94.5157 99.7994 93.2404 102.736 93.1654 105.886C93.1585 106.175 93.6249 106.251 93.6809 105.955C94.2522 102.929 95.1579 99.9758 96.3815 97.1495C96.5438 96.8168 96.7073 96.4855 96.8701 96.1556C97.1179 95.6534 97.3642 95.1542 97.6025 94.6577C98.0236 95.1154 98.4496 95.5721 98.8807 96.0278C97.6219 97.6483 96.5419 99.4 95.6598 101.253C94.6824 102.961 94.1044 104.869 93.9692 106.833C93.9604 107.123 94.428 107.197 94.4845 106.903C95.2216 103.068 97.2188 99.739 99.3729 96.5437L99.4624 96.6377C99.508 96.6857 99.5536 96.7336 99.5996 96.7814C98.307 98.6444 97.3183 100.701 96.6702 102.873C96.6247 103.023 96.5731 103.187 96.518 103.363L96.5179 103.363L96.5176 103.364L96.5175 103.365C96.0122 104.973 95.2107 107.524 96.0519 108.88C96.1137 108.979 96.2329 109.026 96.3455 108.995C96.4581 108.965 96.5374 108.864 96.5409 108.748C96.8086 104.695 98.0096 100.76 100.05 97.2477C100.3 97.5036 100.552 97.7575 100.805 98.0115L100.805 98.0118L100.807 98.0138C99.1078 99.9703 97.855 102.789 97.9585 105.397C97.3335 106.58 96.8877 107.849 96.6357 109.163C96.5973 109.425 96.9879 109.665 97.1153 109.365C97.3419 108.83 97.5762 108.3 97.8105 107.769L97.8106 107.768L97.8107 107.768L97.8108 107.768L97.8108 107.768L97.8109 107.768L97.811 107.768L97.8111 107.767L97.8111 107.767L97.8112 107.767L97.8113 107.767L97.8114 107.767L97.8114 107.767L97.8115 107.766L97.8116 107.766L97.8117 107.766L97.8117 107.766L97.8118 107.766L97.8119 107.766L97.812 107.765L97.812 107.765L97.8121 107.765L97.8122 107.765L97.8123 107.765L97.8123 107.765L97.8125 107.764C97.9345 107.488 98.0564 107.212 98.1772 106.935C98.2419 107.054 98.3524 107.142 98.483 107.177C98.5741 107.203 98.6718 107.177 98.7383 107.11C98.9533 106.726 99.042 106.284 98.992 105.847C99.0012 105.608 98.9947 105.371 98.9883 105.133L98.987 105.082C99.8476 103.152 100.728 101.231 101.629 99.3197L101.798 98.9943L101.91 99.1038C102.045 99.2357 102.18 99.3676 102.317 99.4985C101.782 100.614 100.734 103.113 100.65 103.36C100.352 104.08 100.061 104.803 99.778 105.53C99.0281 107.455 98.2934 109.362 98.2361 111.452C98.2399 111.58 98.3365 111.688 98.4643 111.705C98.5921 111.722 98.7136 111.645 98.7516 111.521C99.4494 108.821 100.249 106.152 101.151 103.514C101.271 103.225 101.395 102.918 101.522 102.604C101.891 101.691 102.289 100.708 102.705 99.8706C102.953 100.106 103.205 100.338 103.457 100.569L103.524 100.631C102.309 102.836 101.439 105.277 101.892 107.707C101.63 108.3 101.352 108.887 101.065 109.473C100.669 110.132 100.456 110.885 100.449 111.654C100.453 111.783 100.55 111.89 100.677 111.907C100.805 111.925 100.927 111.847 100.965 111.724C101.271 110.701 101.678 109.71 102.181 108.768C102.261 108.995 102.352 109.219 102.454 109.437C102.484 109.506 102.547 109.554 102.621 109.564C102.44 110.122 102.304 110.694 102.215 111.273C102.183 111.411 102.265 111.549 102.401 111.587C102.537 111.624 102.679 111.547 102.721 111.413C102.904 110.961 103.092 110.508 103.282 110.054L103.282 110.054L103.282 110.054L103.282 110.054L103.282 110.054L103.282 110.054L103.282 110.054L103.282 110.054L103.282 110.054L103.282 110.053L103.282 110.053L103.282 110.053L103.282 110.053C104.312 107.584 105.362 105.068 105.492 102.383C105.588 102.465 105.684 102.544 105.781 102.624L105.781 102.624L105.781 102.624C105.847 102.678 105.913 102.733 105.979 102.788C105.639 104.886 105.076 106.942 104.299 108.92C104.09 109.475 103.836 110.04 103.58 110.612C103.012 111.876 102.429 113.176 102.275 114.482C102.247 114.717 102.575 114.816 102.722 114.668C103.789 113.599 104.413 111.815 104.95 110.282C105.057 109.974 105.161 109.677 105.265 109.397C106.028 107.438 106.463 105.366 106.553 103.265C107.061 103.68 107.575 104.085 108.096 104.482C108.054 104.742 108.009 105.002 107.951 105.259C107.882 105.429 107.817 105.6 107.752 105.772L107.752 105.772L107.693 105.926C106.377 109.021 105.188 112.19 105.474 115.616C105.496 115.887 105.943 115.999 105.989 115.686C106.318 113.172 106.816 110.684 107.479 108.238C107.754 107.4 107.999 106.834 108.193 106.385C108.444 105.807 108.61 105.422 108.65 104.898C108.729 104.956 108.808 105.013 108.887 105.069C108.939 105.106 108.991 105.143 109.043 105.181C109.028 105.381 109.014 105.588 109.012 105.595C108.728 107.166 108.252 108.686 107.776 110.205C107.188 112.081 106.6 113.956 106.376 115.923L106.374 115.932L106.375 115.932C106.373 115.941 106.372 115.95 106.371 115.959L106.369 115.966L106.367 115.982L106.365 115.993L106.364 116.002C106.332 116.297 106.812 116.356 106.879 116.072C107.116 115.071 107.465 114.105 107.815 113.137C108.095 112.364 108.374 111.591 108.596 110.799C109.033 109.214 109.35 107.599 109.545 105.967C109.568 105.836 109.581 105.703 109.581 105.57L109.62 105.597C109.787 105.715 109.955 105.834 110.125 105.95C110.121 105.988 110.119 106.024 110.117 106.053C110.114 106.089 110.112 106.114 110.111 106.119C109.748 108.308 109.499 110.514 109.366 112.729C109.164 114.041 109.119 115.372 109.231 116.695C109.242 116.81 109.325 116.906 109.437 116.934C109.139 117.766 109.037 118.655 109.138 119.532C109.175 119.788 109.598 119.777 109.644 119.532C109.957 118.063 110.406 116.627 110.987 115.241C110.904 116.315 110.922 117.395 111.042 118.465L111.041 118.477L111.043 118.476C111.045 118.487 111.046 118.498 111.047 118.509C111.048 118.522 111.049 118.534 111.051 118.546C111.093 118.854 111.548 118.754 111.566 118.477C111.683 116.703 111.767 114.929 111.818 113.154C112.534 111.481 113.019 109.719 113.26 107.916C113.35 107.967 113.442 108.016 113.533 108.065C113.598 108.099 113.663 108.133 113.727 108.169C113.726 108.171 113.725 108.173 113.724 108.174L113.724 108.174C113.723 108.176 113.722 108.177 113.721 108.179L113.721 108.18C113.507 109.132 113.383 110.102 113.351 111.078C113.303 111.471 113.254 111.864 113.205 112.257C112.885 114.834 112.564 117.416 112.406 119.998C112.409 120.103 112.473 120.197 112.57 120.237C112.667 120.277 112.778 120.256 112.854 120.183C113.166 119.747 113.326 119.22 113.31 118.683C113.421 117.6 113.519 116.515 113.61 115.43C113.673 114.675 113.702 113.896 113.731 113.11V113.11L113.731 113.108L113.731 113.107L113.731 113.106L113.732 113.104L113.732 113.103C113.738 112.925 113.745 112.747 113.752 112.568C113.859 111.787 114.018 111.012 114.176 110.237C114.289 109.688 114.402 109.138 114.496 108.585C114.507 108.591 114.519 108.598 114.53 108.604L114.562 108.621L114.562 108.622C114.586 108.635 114.61 108.648 114.634 108.66C114.588 108.872 114.545 109.089 114.493 109.475C113.972 112.36 114.002 115.318 114.582 118.192C114.651 118.493 115.079 118.406 115.098 118.122C115.154 117.263 115.048 116.413 114.943 115.561L114.943 115.561C114.864 114.93 114.786 114.297 114.773 113.66C114.777 112.145 114.879 110.633 115.078 109.131C115.078 109.127 115.098 109.022 115.123 108.9C115.302 108.988 115.485 109.073 115.667 109.157L115.668 109.158L115.704 109.174C115.74 109.399 115.789 109.78 115.792 109.811C115.809 109.983 115.827 110.304 115.842 110.573L115.842 110.573L115.842 110.574C115.855 110.812 115.866 111.008 115.872 111.024C115.966 113.533 115.597 116.042 115.231 118.531C115.149 119.089 115.067 119.645 114.991 120.2C114.946 120.524 115.416 120.678 115.497 120.34C116.263 117.155 116.563 113.876 116.385 110.605C116.389 110.336 116.376 110.067 116.346 109.799V109.798C116.346 109.798 116.323 109.64 116.292 109.452C116.668 109.617 117.05 109.773 117.433 109.929L117.464 109.942C117.495 110.161 117.531 110.378 117.582 110.592C117.582 110.601 117.582 110.61 117.583 110.619L117.785 111.682C117.777 111.7 117.771 111.719 117.767 111.739L117.763 111.77C117.742 111.801 117.728 111.837 117.723 111.874C117.632 112.416 117.53 112.964 117.427 113.515C116.969 115.969 116.496 118.497 116.997 120.938C117.053 121.211 117.424 121.164 117.503 120.938C117.793 120.112 117.777 119.106 117.762 118.137C117.754 117.64 117.746 117.152 117.78 116.703C117.863 115.589 117.981 114.479 118.106 113.369L118.74 116.698C118.775 116.881 118.808 117.065 118.841 117.249L118.841 117.249L118.841 117.25L118.841 117.251L118.841 117.251L118.841 117.252L118.841 117.252L118.841 117.253C119.085 118.607 119.328 119.957 120.268 121.022C120.451 121.23 120.76 121.006 120.706 120.767C120.532 119.988 120.289 119.23 120.045 118.473C119.739 117.522 119.433 116.571 119.266 115.577C118.965 113.761 118.565 111.963 118.068 110.191C118.673 110.432 119.275 110.668 119.872 110.899C119.877 110.922 119.886 110.944 119.896 110.965C120.256 111.606 120.574 112.27 120.849 112.951C120.969 113.294 121.079 113.638 121.178 113.985C121.631 115.937 121.536 117.979 121.441 120.008L121.441 120.008C121.405 120.78 121.37 121.549 121.364 122.311C121.368 122.44 121.464 122.547 121.592 122.564C121.72 122.582 121.841 122.504 121.879 122.381C122.548 119.553 122.475 116.601 121.667 113.81C121.458 112.899 121.119 112.023 120.659 111.209C120.719 111.233 120.78 111.257 120.842 111.281L120.842 111.281C120.932 111.316 121.021 111.351 121.108 111.386C121.162 111.408 121.218 111.432 121.273 111.455L121.273 111.455L121.273 111.455L121.336 111.481L121.393 111.506C121.745 112.018 122.053 112.558 122.315 113.122C123.111 114.931 123.569 116.87 123.667 118.844C123.685 119.354 123.685 119.863 123.686 120.37V120.37C123.688 121.796 123.69 123.21 124.068 124.613C124.106 124.736 124.227 124.813 124.355 124.796C124.483 124.779 124.579 124.672 124.583 124.543C124.953 120.47 125.01 116.149 122.684 112.649C122.577 112.403 122.466 112.158 122.353 111.914C122.759 112.092 123.17 112.278 123.585 112.471C123.903 113.366 123.958 113.553 124.132 114.145L124.132 114.145C124.161 114.244 124.194 114.355 124.231 114.482C124.845 116.581 125.21 118.746 125.319 120.931C125.345 121.244 125.359 121.573 125.374 121.91C125.439 123.355 125.51 124.944 126.454 126.026C126.529 126.099 126.641 126.12 126.738 126.08C126.835 126.039 126.899 125.946 126.901 125.841C126.809 124.916 126.783 123.97 126.757 123.023V123.023C126.717 121.6 126.678 120.174 126.413 118.807C125.943 116.733 125.234 114.72 124.3 112.808C124.783 113.04 125.267 113.277 125.746 113.519C126.016 114.466 126.251 115.457 126.49 116.46C127.134 119.169 127.8 121.967 129.223 124.249C129.373 124.49 129.812 124.337 129.703 124.047C129.167 122.625 128.785 121.155 128.402 119.687C127.89 117.718 127.378 115.751 126.499 113.905C127.098 114.214 127.681 114.524 128.241 114.83C128.751 116.483 129.356 118.105 130.054 119.687L130.092 119.774C130.747 121.25 131.42 122.767 132.622 123.881C132.833 124.077 133.2 123.824 133.034 123.563C131.984 121.937 131.103 120.208 130.405 118.402C130.258 118.018 130.128 117.628 129.999 117.238L129.999 117.238L129.999 117.238L129.999 117.238L129.999 117.238L129.999 117.238L129.998 117.237L129.998 117.237L129.998 117.237L129.998 117.237L129.998 117.237L129.998 117.237L129.998 117.237L129.998 117.237L129.998 117.237L129.998 117.237L129.998 117.237L129.998 117.237L129.998 117.237L129.998 117.237L129.998 117.237L129.998 117.236L129.998 117.236L129.998 117.236L129.998 117.236L129.998 117.236C129.958 117.115 129.918 116.995 129.877 116.874C132.006 120.181 134.396 123.315 137.499 125.783C137.757 125.988 138.125 125.645 137.87 125.412C135.941 123.661 134.215 121.696 132.726 119.558C132.436 119.138 132.152 118.715 131.868 118.292C131.348 117.515 130.828 116.74 130.271 115.992L136.584 121.061C137.308 121.789 137.988 122.561 138.619 123.371C138.826 123.638 139.195 123.264 138.99 123C138.447 122.306 137.867 121.64 137.254 121.007C137.246 120.95 137.217 120.899 137.171 120.864L136.96 120.695C134.883 118.678 132.638 116.843 130.249 115.209C133.534 116.074 136.657 117.463 139.5 119.321C139.535 119.349 139.571 119.376 139.607 119.403C139.65 119.435 139.693 119.467 139.734 119.501C139.993 119.714 140.366 119.345 140.105 119.13ZM123.016 79.6746C123.473 79.701 123.945 79.7165 124.442 79.7324C124.546 80.1873 124.66 80.6492 124.788 81.1065C124.141 80.7041 123.546 80.2232 123.016 79.6746ZM122.244 78.8027C122.941 78.8744 123.632 78.9947 124.312 79.1628C124.209 78.7065 124.02 78.0131 123.888 77.5297L123.888 77.5297L123.856 77.4159C123.822 77.4029 123.787 77.3906 123.753 77.3783L123.752 77.3782C123.712 77.364 123.672 77.3498 123.633 77.3346C122.995 77.0907 122.361 76.832 121.727 76.5728C121.242 76.3749 120.753 76.1756 120.26 75.982C120.872 76.9556 121.535 77.8971 122.244 78.8027ZM127.337 75.2631C126.791 76.0454 126.172 76.8048 125.287 77.0642C125.266 77.0718 125.247 77.082 125.229 77.0946C124.946 76.9874 124.666 76.8809 124.386 76.7736C125.362 76.2544 126.346 75.7509 127.337 75.2631ZM124.833 72.7483C124.286 73.0347 123.746 73.3347 123.211 73.6482C123.084 73.7228 122.957 73.798 122.831 73.8732L122.831 73.8734C121.919 74.4155 121.024 74.9481 120.031 75.1315C120.695 75.368 121.336 75.606 121.886 75.8143C123.036 74.9679 124.033 73.931 124.833 72.7483ZM119.157 75.5671C119.339 75.8878 119.527 76.2354 119.719 76.5899C120.087 77.2705 120.469 77.9765 120.848 78.566C120.268 78.4335 119.712 78.21 119.201 77.9039C118.042 77.2005 116.957 76.356 115.878 75.5172C115.465 75.1954 115.052 74.8744 114.637 74.5626C114.629 74.5581 114.62 74.5542 114.611 74.5507C114.592 74.5306 114.572 74.513 114.551 74.4954C114.537 74.4831 114.523 74.4709 114.509 74.4577C114.983 74.5039 115.457 74.5663 115.928 74.6531C117.027 74.8689 118.107 75.1746 119.157 75.5671ZM103.389 98.5077C104.334 97.7181 105.217 96.8571 106.03 95.9323C105.818 96.0215 105.592 96.1113 105.359 96.204C104.176 96.6748 102.805 97.2202 102.053 98.1479C102.302 98.3945 102.552 98.6398 102.804 98.8837C102.814 98.8732 102.825 98.8636 102.837 98.8552C103.03 98.745 103.21 98.6269 103.389 98.5077ZM95.4183 87.2876L95.4183 87.2876C94.5527 87.4777 93.6996 87.6651 92.993 88.2185C92.9167 88.1304 92.8401 88.0413 92.7635 87.9522L92.7628 87.9514L92.6936 87.8709C92.712 87.8648 92.7296 87.8563 92.7458 87.8457C93.8649 86.8834 95.2173 86.577 96.5863 86.2667C97.1523 86.1385 97.7212 86.0096 98.2775 85.8334C98.6033 85.7291 98.9233 85.6075 99.2361 85.469C99.3174 85.6026 99.4086 85.7281 99.5014 85.8522C98.5971 86.2439 97.6848 86.6157 96.7591 86.9372V86.9372C96.3213 87.0892 95.8681 87.1888 95.4183 87.2876ZM94.576 85.215C93.6504 85.7414 92.7232 86.2687 91.9809 87.0345C92.0182 87.0785 92.0555 87.1228 92.0927 87.1671L92.0932 87.1677L92.0944 87.1691L92.0947 87.1695C92.1434 87.2274 92.192 87.2852 92.2405 87.3422C92.9371 86.4682 93.9952 86.1575 95.0688 85.8421C95.1848 85.808 95.301 85.7739 95.417 85.739C96.5582 85.3955 97.6796 84.9982 98.7843 84.5584C98.655 84.2497 98.5364 83.9335 98.4317 83.6093C98.3425 83.4316 98.2591 83.2514 98.1756 83.0713C98.1251 82.9622 98.0745 82.8531 98.0227 82.7446C97.8542 82.9088 97.6812 83.0678 97.5038 83.2215L97.5218 83.2688L97.5639 83.3781L97.5639 83.3782L97.5639 83.3783L97.5639 83.3783L97.5639 83.3783L97.5639 83.3783L97.5639 83.3784L97.564 83.3784L97.564 83.3784L97.564 83.3784L97.564 83.3785L97.564 83.3785L97.564 83.3785L97.564 83.3785L97.564 83.3785L97.564 83.3786L97.564 83.3786L97.564 83.3786L97.564 83.3786C97.6327 83.5568 97.7013 83.7349 97.7606 83.9176C97.8556 84.2109 97.434 84.3625 97.281 84.1198C97.2174 84.019 97.1581 83.9165 97.0987 83.814L97.0985 83.8138C97.0641 83.7543 97.0296 83.6949 96.9944 83.6357C96.6579 83.8991 96.3091 84.1493 95.9481 84.3863L95.9517 84.4317L95.9517 84.4318C95.9731 84.6992 95.9945 84.9666 96.0057 85.2359C96.0187 85.5421 95.5754 85.5787 95.4903 85.3057C95.4352 85.1288 95.3892 84.9498 95.3447 84.7704C95.0913 84.922 94.8337 85.0685 94.576 85.215ZM91.4328 86.3844C91.923 85.5093 92.5367 84.7093 93.255 84.0092C93.5081 83.7663 93.7798 83.5461 94.0536 83.3287C94.2052 83.6296 94.3754 83.9209 94.5631 84.2007L94.1519 84.4873C93.2091 85.0651 92.3475 85.7659 91.5899 86.5712L91.5268 86.4963C91.4955 86.4592 91.4642 86.4221 91.4328 86.3844ZM95.0213 74.9325C95.0181 74.9221 95.0156 74.9116 95.0138 74.9009V74.9009C94.9674 74.9006 94.921 74.9006 94.8746 74.9005C94.8139 74.9004 94.7533 74.9004 94.6928 74.8999C94.7925 75.2748 94.8893 75.6517 94.9862 76.029L94.9863 76.0293L94.9864 76.0296L94.9865 76.0299L94.9866 76.0302L94.9866 76.0303L94.9866 76.0304L94.9866 76.0305L94.9867 76.0307L94.9867 76.0308L94.9867 76.0309L94.9868 76.0311L94.9868 76.0312L94.9869 76.0314L94.9869 76.0315L94.9869 76.0317L94.987 76.0318C95.2787 77.1674 95.5714 78.307 95.9476 79.4102C96.2023 80.1571 96.5166 80.8766 96.8312 81.5967C96.9454 81.8582 97.0596 82.1197 97.1711 82.3827L97.6824 82.0262C96.6696 79.8197 95.8229 77.5406 95.1494 75.2081C95.1288 75.1649 95.1089 75.1215 95.0891 75.078L95.089 75.078C95.0668 75.0293 95.0445 74.9807 95.0213 74.9325ZM93.97 74.888C94.3246 77.6708 95.1929 80.3635 96.5306 82.8295L95.8359 83.3137C95.7752 82.8392 95.7033 82.3672 95.6128 81.8997C95.6893 81.7757 95.6555 81.6135 95.5358 81.5302C95.1561 79.7265 94.556 77.9762 93.749 76.3189C93.524 75.8277 93.283 75.3435 93.0259 74.8663C93.3405 74.8756 93.6552 74.8828 93.97 74.888L93.97 74.888ZM93.2385 76.468C92.9678 75.9185 92.6822 75.3745 92.3639 74.8435L92.364 74.8435C92.1732 74.8361 91.9825 74.8285 91.7919 74.8195C92.4806 77.3037 93.3191 79.7439 94.3026 82.1269C94.4816 82.0034 94.6651 81.8854 94.8532 81.7728C94.7759 81.1767 94.6648 80.5855 94.5203 80.0021C94.1989 78.7883 93.7699 77.6056 93.2385 76.468ZM94.9632 82.5788C95.0172 82.9862 95.0748 83.3924 95.1433 83.7959L95.0508 83.8604C94.9382 83.609 94.8303 83.3558 94.7225 83.1025L94.7224 83.1023C94.6891 83.024 94.6558 82.9458 94.6223 82.8675C94.7376 82.7731 94.8522 82.6778 94.9632 82.5787L94.9632 82.5788ZM99.905 85.3927L99.905 85.3927L99.905 85.3927L99.905 85.3928L99.9051 85.3928L99.9051 85.3928L99.9051 85.3928L99.9051 85.3929L99.9051 85.3929L99.9051 85.3929L99.9051 85.3929L99.9051 85.393L99.9051 85.393C99.9356 85.4747 99.966 85.5563 99.9945 85.6388L99.9945 85.6388C100.616 85.3628 101.233 85.0778 101.847 84.7895C101.772 84.5904 101.698 84.3905 101.624 84.1907L101.568 84.0396C101.024 84.4723 100.441 84.8522 99.8251 85.1742C99.8509 85.2473 99.8779 85.3199 99.9049 85.3925L99.905 85.3927ZM100.804 75.9566C100.527 75.6487 100.251 75.3411 99.9753 75.0338C100.022 74.9864 100.066 74.9377 100.111 74.8889L100.111 74.8888C100.134 74.8636 100.157 74.8384 100.18 74.8134C100.282 74.8099 100.385 74.8062 100.487 74.8024H100.487H100.487H100.487H100.487H100.487H100.487H100.487L100.488 74.8024L100.671 74.7957C100.671 74.8019 100.669 74.8072 100.668 74.8125C100.666 74.82 100.664 74.8275 100.665 74.8373C100.71 75.2108 100.757 75.5839 100.804 75.9566L100.804 75.9566ZM97.6473 74.97C97.6312 74.9432 97.6208 74.9134 97.6168 74.8824L97.6168 74.8823C97.5092 74.8843 97.4016 74.8858 97.294 74.8873L97.1249 74.8897C97.5286 76.3917 98.051 77.8593 98.6871 79.2786C99.0181 79.9433 99.4072 80.5757 99.7964 81.2083L99.7964 81.2084L99.7964 81.2084L99.7965 81.2084L99.7965 81.2084L99.7965 81.2085L99.7965 81.2085L99.7965 81.2085L99.7966 81.2086L99.7966 81.2086L99.7966 81.2086C100.154 81.7894 100.511 82.3703 100.824 82.9765C100.954 83.2277 100.602 83.5396 100.412 83.2944C100.405 83.2852 100.398 83.2758 100.391 83.2664L100.391 83.2663L100.391 83.2663C100.385 83.2575 100.379 83.2488 100.372 83.2402L100.371 83.2413L100.364 83.2295C98.4611 80.7752 97.1257 77.9297 96.454 74.8979C96.2031 74.8999 95.9521 74.9011 95.701 74.9016C95.7916 75.1088 95.8824 75.3159 95.9732 75.523C96.5365 76.8072 97.1002 78.0924 97.601 79.4019C97.8439 79.9792 98.0744 80.5616 98.305 81.144L98.3051 81.1442L98.4442 81.4953L98.5327 81.4335C98.7981 81.2486 99.022 81.634 98.8507 81.8455C98.8181 81.8858 98.7831 81.9232 98.7482 81.9606C98.7209 81.9898 98.6936 82.019 98.6674 82.0496C98.9538 82.7833 99.2245 83.5232 99.4934 84.2639C100.117 84.0045 100.734 83.7306 101.346 83.442C100.818 82.0163 100.287 80.5885 99.6519 79.2104C99.4224 78.7119 99.1616 78.2273 98.901 77.7431C98.4225 76.854 97.9447 75.9661 97.6624 74.996C97.6595 74.9912 97.6568 74.9864 97.654 74.9817L97.6473 74.97ZM97.3497 69.3752L97.3511 69.373C98.9577 68.2937 99.9215 67.7369 100.597 67.3466L100.597 67.3466C100.989 67.1205 101.283 66.9503 101.55 66.7667C99.3189 68.8693 97.2604 71.1447 95.942 73.9425C95.6165 73.9391 95.2906 73.9337 94.9643 73.9263C95.3225 72.4041 96.1968 71.0984 97.059 69.8107L97.0594 69.8101L97.06 69.8092C97.157 69.6644 97.2538 69.5198 97.3497 69.3752ZM94.3413 73.9091C94.5891 72.8851 94.9343 71.8871 95.3723 70.9288L95.3723 70.9288C94.5616 71.634 93.7812 72.3794 93.0011 73.1245L92.9798 73.1448C92.8693 73.3776 92.7518 73.6074 92.6292 73.8353C93.2003 73.8673 93.771 73.8919 94.3413 73.9091ZM94.108 67.8233C93.4205 69.271 92.849 70.7711 92.399 72.3093C92.0227 72.7579 91.6916 73.2426 91.4105 73.7561C91.2224 73.7419 91.0344 73.7269 90.8466 73.711C91.665 71.6112 92.762 69.6309 94.1081 67.8232L94.108 67.8233ZM88.4451 74.5758C88.4462 74.5718 88.4474 74.5678 88.4472 74.5632L88.4472 74.5631C86.6275 74.3743 84.822 74.0671 83.0423 73.6433C85.0433 78.101 88.0216 82.2378 91.0137 85.8747C91.6662 84.5944 92.5841 83.4677 93.7064 82.5699C93.4454 81.946 93.2244 81.3002 93.0087 80.6698C92.9366 80.4591 92.8651 80.2502 92.7929 80.0443C92.1862 78.3152 91.6638 76.5605 91.2044 74.7871C90.8696 74.7682 90.5351 74.7464 90.2007 74.7218C90.9011 76.3041 91.4404 77.9529 91.8104 79.6432C91.8474 79.8168 91.897 80.0213 91.9515 80.2463L91.9515 80.2463C92.2373 81.4262 92.6602 83.1717 92.1361 84.004C92.0812 84.0926 91.9794 84.1408 91.8761 84.1273C91.7727 84.1138 91.6868 84.041 91.6564 83.9413C91.457 83.116 91.3481 82.2726 91.2391 81.4285C91.1474 80.7186 91.0557 80.0081 90.91 79.3076C90.5761 77.7329 90.1301 76.184 89.5754 74.6728C89.4055 74.6584 89.2359 74.6438 89.0662 74.6277C89.1486 75.1136 89.2282 75.6004 89.3079 76.0874L89.3079 76.0874L89.3079 76.0874L89.3079 76.0875L89.3079 76.0875L89.3079 76.0875L89.3079 76.0875C89.5127 77.339 89.7176 78.5917 89.9695 79.8324C90.1318 80.6317 90.3647 81.4113 90.5978 82.1913C90.8196 82.9337 91.0416 83.6765 91.2027 84.4367C91.2331 84.5623 91.168 84.6915 91.0489 84.7417C90.9298 84.7919 90.7918 84.7483 90.7231 84.6389C89.2742 82.3889 88.9713 79.4656 88.6877 76.7281C88.612 75.9969 88.5376 75.2791 88.4431 74.5908C88.4424 74.5852 88.4437 74.5805 88.4451 74.5758ZM93.1918 95.3174C93.2707 94.8311 93.3787 94.3501 93.5151 93.8768C93.5928 93.6155 93.6738 93.3564 93.7545 93.098C93.9706 92.4061 94.1851 91.7192 94.3327 91.0081C94.7132 91.442 95.098 91.8777 95.4871 92.3153C94.6004 93.217 93.8294 94.2254 93.1918 95.3173L93.1918 95.3174ZM101.094 99.2121L101.177 99.0527L101.177 99.0526C101.231 98.9375 101.285 98.8219 101.338 98.7062L101.338 98.7062L101.338 98.7062L101.338 98.7061L101.338 98.7061L101.389 98.5956C101.367 98.5745 101.346 98.5536 101.324 98.5327L101.284 98.4943L101.253 98.4636C100.242 99.9516 99.4755 101.592 98.9838 103.323C99.6676 101.943 100.381 100.577 101.094 99.2121ZM102.664 105.738C102.66 105.592 102.658 105.445 102.664 105.297C102.779 103.799 103.221 102.344 103.958 101.035L104.007 101.079C103.977 101.156 103.952 101.235 103.933 101.316C103.631 102.126 103.414 102.972 103.197 103.819C103.032 104.463 102.867 105.108 102.664 105.738L102.664 105.738ZM103.25 107.808C103.399 107.414 103.549 107.02 103.688 106.621L103.688 106.621C104.144 105.322 104.885 102.556 105.035 101.985C104.838 101.812 104.642 101.639 104.446 101.465C104.306 103.192 103.9 104.887 103.243 106.491C103.12 106.801 102.982 107.109 102.839 107.416C102.891 107.809 102.936 108.204 102.951 108.604C103.049 108.338 103.149 108.073 103.25 107.808ZM111.372 107.247C111.377 107.922 111.373 108.596 111.368 109.27L111.368 109.323L111.158 112.71C110.977 113.171 110.791 113.631 110.601 114.09C110.48 114.382 110.351 114.676 110.22 114.974L110.22 114.974C110.067 115.321 109.913 115.671 109.769 116.026C109.779 114.977 109.818 113.93 109.881 112.884C109.906 112.676 109.931 112.469 109.957 112.262L109.958 112.259C109.98 112.075 110.003 111.892 110.026 111.708C110.241 109.928 110.508 108.154 110.775 106.381C110.846 106.429 110.918 106.477 110.989 106.525L110.989 106.525C111.114 106.609 111.239 106.693 111.365 106.774C111.369 106.875 111.372 106.977 111.374 107.079V107.079C111.376 107.128 111.377 107.177 111.378 107.226C111.378 107.234 111.372 107.238 111.372 107.247L111.372 107.247ZM111.878 110.463C111.876 110.568 111.875 110.673 111.873 110.778L111.873 110.778C112.232 109.742 112.521 108.684 112.737 107.61C112.498 107.469 112.261 107.325 112.025 107.18L111.893 109.323C111.89 109.703 111.884 110.083 111.878 110.463Z" fill="#2B5E57"/>
<circle cx="144.695" cy="90.1453" r="0.736169" fill="white"/>
<ellipse cx="130.924" cy="89.6169" rx="0.694293" ry="0.694293" fill="white"/>
<ellipse cx="129.034" cy="98.9395" rx="0.910528" ry="0.910212" fill="white"/>
<circle cx="140.883" cy="64.6359" r="0.668603" fill="white"/>
<ellipse cx="152.806" cy="105.417" rx="0.852333" ry="0.852036" fill="white"/>
<circle cx="122.452" cy="51.8684" r="0.583735" fill="white"/>
<circle cx="130.618" cy="132.454" r="0.739264" fill="white"/>
<ellipse cx="98.9041" cy="129.014" rx="1.12508" ry="1.12469" fill="white"/>
<ellipse cx="75.1298" cy="111.903" rx="0.81249" ry="0.812207" fill="white"/>
<ellipse cx="84.6488" cy="105.091" rx="0.806628" ry="0.806347" fill="white"/>
<ellipse cx="109.892" cy="54.9033" rx="1.08773" ry="1.08736" fill="white"/>
<circle cx="117.084" cy="88.007" r="0.747967" fill="white"/>
<circle cx="84.5242" cy="65.0237" r="0.638469" fill="white"/>
<circle cx="145.874" cy="77.6938" r="0.667407" fill="white"/>
<circle cx="95.8254" cy="54.8243" r="0.706659" fill="white"/>
<circle cx="96.8484" cy="118.013" r="0.60196" fill="white"/>
<ellipse cx="71.5931" cy="96.5154" rx="0.856258" ry="0.855961" fill="white"/>
<ellipse cx="85.8597" cy="129.041" rx="0.769661" ry="0.769393" fill="white"/>
<ellipse cx="85.3612" cy="114.737" rx="0.904656" ry="0.904341" fill="white"/>
<ellipse cx="115.296" cy="127.644" rx="0.720278" ry="0.720278" fill="white"/>
<ellipse cx="79.0048" cy="86.263" rx="0.720278" ry="0.720278" fill="white"/>
<ellipse cx="146.387" cy="117.039" rx="0.720278" ry="0.720278" fill="white"/>
<ellipse cx="142.034" cy="102.067" rx="0.720278" ry="0.720278" fill="white"/>
<ellipse cx="154.403" cy="87.815" rx="0.720278" ry="0.720278" fill="white"/>
<ellipse cx="128.512" cy="63.3892" rx="0.720278" ry="0.720278" fill="white"/>
<ellipse cx="103.305" cy="47.4008" rx="1.27131" ry="1.27087" fill="white"/>
</svg>
